<svg id="svg" version="1.1" xmlns="http://www.w3.org/2000/svg" xmlns:xlink="http://www.w3.org/1999/xlink" width="400" height="361.0810810810811" viewBox="0, 0, 400,361.0810810810811"><g id="svgg"><path id="path0" d="M193.677 0.542 C 193.677 1.002,192.777 1.084,187.744 1.084 C 181.106 1.084,180.668 1.165,180.668 2.387 C 180.668 3.244,180.634 3.252,176.904 3.252 C 172.528 3.252,171.996 3.392,171.996 4.541 C 171.996 5.362,171.884 5.396,168.835 5.496 C 165.684 5.600,165.673 5.604,165.559 6.594 C 165.445 7.583,165.430 7.588,162.650 7.588 C 159.765 7.588,158.988 7.910,158.988 9.106 C 158.988 9.660,158.667 9.756,156.820 9.756 C 154.659 9.756,154.652 9.759,154.652 10.826 L 154.652 11.896 151.491 12.000 C 148.354 12.104,148.328 12.112,148.216 13.081 C 148.110 13.999,147.981 14.064,146.048 14.165 C 144.105 14.267,143.987 14.327,143.878 15.266 C 143.768 16.226,143.690 16.260,141.620 16.260 C 139.487 16.260,139.476 16.265,139.476 17.326 C 139.476 18.370,139.434 18.394,137.398 18.500 C 135.432 18.603,135.315 18.662,135.206 19.603 C 135.100 20.530,134.979 20.596,133.382 20.596 C 131.571 20.596,130.804 21.048,130.804 22.114 C 130.804 22.596,130.523 22.764,129.720 22.764 C 128.760 22.764,128.636 22.887,128.636 23.830 C 128.636 24.874,128.594 24.898,126.558 25.005 C 124.591 25.107,124.474 25.166,124.366 26.107 C 124.258 27.043,124.148 27.100,122.438 27.100 C 120.760 27.100,120.593 27.181,120.221 28.167 C 119.942 28.907,119.535 29.267,118.897 29.342 C 118.194 29.424,117.949 29.684,117.862 30.443 C 117.766 31.275,117.576 31.436,116.688 31.436 C 115.751 31.436,115.628 31.562,115.628 32.520 C 115.628 33.583,115.591 33.604,113.790 33.604 C 112.086 33.604,111.922 33.682,111.549 34.671 C 111.270 35.411,110.863 35.771,110.225 35.846 C 109.522 35.928,109.277 36.188,109.190 36.947 C 109.094 37.779,108.904 37.940,108.016 37.940 C 107.079 37.940,106.956 38.066,106.956 39.024 C 106.956 39.988,106.835 40.108,105.872 40.108 C 104.908 40.108,104.788 40.229,104.788 41.192 C 104.788 42.254,104.750 42.276,102.962 42.276 C 101.267 42.276,101.110 42.352,100.766 43.339 C 100.538 43.993,100.100 44.444,99.626 44.513 C 99.149 44.582,98.775 44.970,98.646 45.528 C 98.484 46.226,98.172 46.458,97.276 46.545 L 96.116 46.658 96.116 43.383 L 96.116 40.108 95.046 40.108 L 93.976 40.108 93.871 36.947 C 93.767 33.796,93.764 33.785,92.773 33.671 C 91.941 33.575,91.780 33.384,91.780 32.496 C 91.780 31.559,91.654 31.436,90.696 31.436 L 89.612 31.436 89.612 29.268 L 89.612 27.100 88.528 27.100 C 87.564 27.100,87.444 26.980,87.444 26.016 C 87.444 25.053,87.323 24.932,86.360 24.932 C 85.396 24.932,85.276 24.812,85.276 23.848 C 85.276 22.885,85.155 22.764,84.192 22.764 C 83.228 22.764,83.107 22.644,83.107 21.680 C 83.107 20.717,82.987 20.596,82.023 20.596 C 81.060 20.596,80.939 20.476,80.939 19.512 C 80.939 18.549,80.819 18.428,79.855 18.428 C 78.892 18.428,78.771 18.308,78.771 17.344 C 78.771 16.381,78.651 16.260,77.687 16.260 C 76.785 16.260,76.603 16.115,76.603 15.395 C 76.603 14.374,76.016 14.092,73.888 14.092 C 72.441 14.092,72.306 14.013,72.201 13.098 C 72.093 12.158,71.976 12.099,70.009 11.996 C 68.102 11.897,67.931 11.819,67.931 11.041 C 67.931 9.947,67.362 9.756,64.108 9.756 C 61.521 9.756,61.427 9.726,61.427 8.891 C 61.427 7.604,61.267 7.588,48.028 7.588 L 35.772 7.588 35.772 8.672 L 35.772 9.756 32.520 9.756 L 29.268 9.756 29.268 10.840 L 29.268 11.924 27.100 11.924 L 24.932 11.924 24.932 13.008 L 24.932 14.092 22.764 14.092 L 20.596 14.092 20.596 15.176 C 20.596 16.230,20.548 16.260,18.862 16.260 C 17.028 16.260,16.260 16.708,16.260 17.778 C 16.260 18.163,15.995 18.428,15.610 18.428 C 14.786 18.428,14.092 19.111,14.092 19.922 C 14.092 20.337,13.756 20.587,13.098 20.663 C 12.324 20.752,12.080 20.992,11.993 21.749 C 11.906 22.500,11.660 22.746,10.909 22.833 C 10.151 22.920,9.912 23.164,9.822 23.939 C 9.747 24.596,9.496 24.932,9.082 24.932 C 8.036 24.932,7.588 25.713,7.588 27.534 C 7.588 29.220,7.558 29.268,6.504 29.268 C 5.540 29.268,5.420 29.389,5.420 30.352 C 5.420 31.155,5.251 31.436,4.770 31.436 C 3.700 31.436,3.252 32.204,3.252 34.038 C 3.252 35.467,3.138 35.772,2.602 35.772 C 1.404 35.772,1.084 36.549,1.084 39.458 C 1.084 41.722,0.977 42.276,0.542 42.276 C 0.068 42.276,0.000 44.324,0.000 58.537 C 0.000 72.749,0.068 74.797,0.542 74.797 C 0.972 74.797,1.084 75.315,1.084 77.297 C 1.084 80.375,1.286 80.939,2.387 80.939 C 3.196 80.939,3.252 81.070,3.252 82.958 C 3.252 84.862,3.313 85.000,4.319 85.380 C 5.058 85.659,5.419 86.065,5.493 86.703 C 5.575 87.406,5.836 87.651,6.594 87.739 C 7.487 87.841,7.588 87.995,7.588 89.245 C 7.588 91.189,7.892 91.780,8.891 91.780 C 9.611 91.780,9.756 91.961,9.756 92.864 C 9.756 93.827,9.877 93.948,10.840 93.948 C 11.804 93.948,11.924 94.068,11.924 95.032 C 11.924 95.995,12.045 96.116,13.008 96.116 C 13.972 96.116,14.092 96.236,14.092 97.200 C 14.092 98.158,14.215 98.284,15.152 98.284 C 16.040 98.284,16.231 98.445,16.326 99.277 C 16.435 100.218,16.552 100.277,18.519 100.379 C 20.554 100.486,20.596 100.509,20.596 101.554 C 20.596 102.492,20.723 102.620,21.656 102.620 C 22.544 102.620,22.735 102.781,22.831 103.613 C 22.945 104.604,22.955 104.607,26.107 104.711 L 29.268 104.816 29.268 105.886 C 29.268 106.951,29.277 106.956,31.412 106.956 C 33.483 106.956,33.560 106.990,33.671 107.949 L 33.785 108.943 44.535 109.039 L 55.285 109.135 55.285 111.273 C 55.285 113.338,55.250 113.416,54.291 113.526 C 53.340 113.636,53.293 113.736,53.190 115.876 C 53.088 118.007,53.037 118.118,52.106 118.225 C 51.137 118.337,51.128 118.364,51.025 121.477 C 50.922 124.592,50.914 124.617,49.941 124.729 L 48.961 124.842 48.859 128.884 L 48.757 132.926 47.775 133.039 L 46.793 133.153 46.692 137.367 L 46.590 141.581 45.517 141.955 L 44.444 142.329 44.444 149.575 L 44.444 156.820 43.358 156.820 L 42.271 156.820 42.364 179.494 L 42.457 202.168 43.451 202.282 L 44.444 202.397 44.444 209.631 L 44.444 216.865 45.518 217.270 L 46.591 217.675 46.692 221.846 L 46.793 226.016 47.775 226.129 L 48.757 226.243 48.859 230.269 C 48.960 234.231,48.976 234.299,49.864 234.507 C 50.721 234.707,50.777 234.876,50.949 237.775 C 51.126 240.776,51.147 240.833,52.106 240.944 C 53.037 241.051,53.088 241.162,53.190 243.292 C 53.293 245.433,53.340 245.533,54.291 245.643 L 55.285 245.757 55.285 248.776 L 55.285 251.794 56.351 252.029 C 57.363 252.251,57.424 252.370,57.526 254.316 C 57.627 256.246,57.691 256.375,58.610 256.481 C 59.528 256.587,59.592 256.716,59.694 258.649 C 59.795 260.582,59.859 260.711,60.778 260.817 C 61.696 260.923,61.760 261.052,61.862 262.985 C 61.963 264.918,62.027 265.047,62.946 265.153 C 63.864 265.259,63.928 265.388,64.030 267.321 C 64.131 269.264,64.192 269.383,65.131 269.491 C 66.079 269.600,66.125 269.695,66.125 271.569 C 66.125 273.502,66.141 273.532,67.191 273.532 C 68.235 273.532,68.259 273.574,68.365 275.610 C 68.468 277.577,68.526 277.694,69.467 277.802 C 70.299 277.898,70.461 278.088,70.461 278.976 C 70.461 279.859,70.608 280.036,71.342 280.036 C 72.120 280.036,72.250 280.237,72.453 281.752 C 72.776 284.163,72.844 284.302,73.781 284.434 C 74.386 284.520,74.648 284.826,74.730 285.547 C 74.818 286.311,75.038 286.540,75.679 286.540 C 76.317 286.540,76.564 286.795,76.730 287.624 C 76.897 288.462,77.141 288.708,77.801 288.708 C 78.561 288.708,78.691 288.936,78.984 290.786 C 79.259 292.523,79.443 292.882,80.103 292.976 C 80.640 293.052,80.966 293.426,81.125 294.150 C 81.303 294.959,81.561 295.212,82.209 295.212 C 82.868 295.212,83.085 295.436,83.174 296.206 C 83.263 296.980,83.503 297.224,84.260 297.312 C 85.011 297.399,85.257 297.645,85.344 298.396 C 85.431 299.153,85.676 299.393,86.450 299.482 C 87.282 299.578,87.444 299.769,87.444 300.656 C 87.444 301.580,87.576 301.716,88.469 301.716 C 89.438 301.716,89.513 301.830,89.824 303.794 C 90.124 305.683,90.242 305.882,91.125 305.984 C 91.872 306.070,92.123 306.318,92.209 307.054 C 92.288 307.727,92.586 308.073,93.212 308.219 C 93.764 308.348,94.180 308.760,94.309 309.304 C 94.436 309.843,94.854 310.261,95.393 310.388 C 95.932 310.516,96.350 310.934,96.477 311.472 C 96.604 312.011,97.022 312.429,97.561 312.556 C 98.105 312.685,98.517 313.101,98.646 313.654 C 98.831 314.440,99.075 314.557,100.737 314.653 C 102.556 314.759,102.620 314.798,102.620 315.827 C 102.620 316.770,102.744 316.893,103.704 316.893 C 104.667 316.893,104.788 317.013,104.788 317.977 C 104.788 318.940,104.908 319.061,105.872 319.061 C 106.835 319.061,106.956 319.181,106.956 320.145 C 106.956 321.103,107.079 321.229,108.016 321.229 C 108.904 321.229,109.094 321.390,109.190 322.222 C 109.277 322.981,109.522 323.241,110.225 323.323 C 110.863 323.398,111.270 323.758,111.549 324.498 C 111.922 325.487,112.086 325.565,113.790 325.565 C 115.591 325.565,115.628 325.586,115.628 326.649 C 115.628 327.607,115.751 327.733,116.688 327.733 C 117.576 327.733,117.766 327.894,117.862 328.726 C 117.970 329.667,118.087 329.726,120.054 329.828 C 122.090 329.934,122.132 329.958,122.132 331.003 C 122.132 331.941,122.259 332.069,123.192 332.069 C 124.080 332.069,124.270 332.230,124.366 333.062 C 124.474 334.003,124.591 334.062,126.558 334.164 C 128.594 334.271,128.636 334.294,128.636 335.339 C 128.636 336.282,128.760 336.405,129.720 336.405 C 130.523 336.405,130.804 336.573,130.804 337.055 C 130.804 338.121,131.571 338.573,133.382 338.573 C 134.979 338.573,135.100 338.638,135.206 339.566 C 135.314 340.506,135.433 340.566,137.376 340.668 C 139.309 340.769,139.438 340.833,139.544 341.752 C 139.650 342.670,139.779 342.734,141.712 342.836 C 143.645 342.937,143.774 343.002,143.880 343.920 C 143.986 344.840,144.113 344.902,146.070 345.004 C 147.767 345.093,148.148 345.229,148.148 345.745 C 148.148 346.924,148.936 347.245,151.834 347.245 L 154.652 347.245 154.652 348.329 L 154.652 349.413 156.820 349.413 C 158.667 349.413,158.988 349.509,158.988 350.063 C 158.988 351.261,159.765 351.581,162.674 351.581 C 165.406 351.581,165.492 351.607,165.492 352.446 C 165.492 353.610,166.015 353.749,170.400 353.749 L 174.164 353.749 174.164 354.833 L 174.164 355.917 178.476 355.917 L 182.788 355.917 182.903 356.911 L 183.017 357.904 189.431 358.003 L 195.845 358.102 195.845 359.177 L 195.845 360.253 222.331 360.253 C 249.960 360.253,249.684 360.268,249.684 358.745 C 249.684 358.165,250.189 358.095,255.014 358.004 L 260.343 357.904 260.457 356.922 L 260.570 355.939 264.793 355.838 L 269.015 355.736 269.130 354.743 L 269.244 353.749 272.472 353.749 L 275.700 353.749 275.700 352.665 L 275.700 351.581 278.952 351.581 L 282.204 351.581 282.204 350.497 L 282.204 349.413 285.285 349.413 L 288.365 349.413 288.578 348.346 C 288.781 347.332,288.894 347.273,290.828 347.171 C 292.740 347.071,292.870 347.005,292.976 346.088 C 293.082 345.170,293.211 345.105,295.144 345.004 C 297.077 344.903,297.206 344.838,297.312 343.920 C 297.418 343.002,297.547 342.937,299.480 342.836 C 301.414 342.734,301.542 342.670,301.648 341.752 C 301.754 340.833,301.883 340.769,303.816 340.668 C 305.750 340.566,305.878 340.502,305.984 339.584 C 306.090 338.665,306.219 338.601,308.152 338.500 C 310.095 338.398,310.214 338.338,310.322 337.398 C 310.431 336.450,310.526 336.405,312.409 336.405 C 314.311 336.405,314.389 336.366,314.598 335.321 C 314.779 334.418,314.988 334.237,315.854 334.237 C 316.763 334.237,316.893 334.104,316.893 333.171 C 316.893 332.126,316.935 332.103,318.970 331.996 C 320.937 331.894,321.054 331.835,321.162 330.894 C 321.258 330.062,321.449 329.901,322.337 329.901 C 323.273 329.901,323.397 329.775,323.397 328.817 C 323.397 327.743,323.416 327.733,325.393 327.733 C 327.314 327.733,327.397 327.692,327.602 326.669 C 327.765 325.856,328.040 325.579,328.767 325.494 C 329.504 325.409,329.746 325.159,329.834 324.390 C 329.930 323.558,330.121 323.397,331.009 323.397 C 331.941 323.397,332.069 323.269,332.069 322.331 C 332.069 321.301,332.131 321.263,333.966 321.157 C 335.735 321.055,335.870 320.981,335.977 320.054 C 336.073 319.222,336.264 319.061,337.151 319.061 C 338.088 319.061,338.211 318.935,338.211 317.977 C 338.211 317.013,338.332 316.893,339.295 316.893 C 340.259 316.893,340.379 316.772,340.379 315.808 C 340.379 314.845,340.500 314.724,341.463 314.724 C 342.427 314.724,342.547 314.604,342.547 313.640 C 342.547 312.677,342.668 312.556,343.631 312.556 C 344.595 312.556,344.715 312.436,344.715 311.472 C 344.715 310.509,344.836 310.388,345.799 310.388 C 346.763 310.388,346.883 310.268,346.883 309.304 C 346.883 308.341,347.004 308.220,347.967 308.220 C 348.931 308.220,349.051 308.100,349.051 307.136 C 349.051 306.173,349.172 306.052,350.136 306.052 C 351.099 306.052,351.220 305.932,351.220 304.968 C 351.220 304.005,351.340 303.884,352.304 303.884 C 353.267 303.884,353.388 303.764,353.388 302.800 C 353.388 301.837,353.508 301.716,354.472 301.716 C 355.435 301.716,355.556 301.596,355.556 300.632 C 355.556 299.669,355.676 299.548,356.640 299.548 C 357.598 299.548,357.724 299.425,357.724 298.488 C 357.724 297.601,357.885 297.410,358.717 297.314 C 359.658 297.206,359.717 297.089,359.819 295.122 C 359.925 293.087,359.949 293.044,360.994 293.044 C 361.937 293.044,362.060 292.920,362.060 291.960 C 362.060 290.997,362.180 290.876,363.144 290.876 C 364.107 290.876,364.228 290.756,364.228 289.792 C 364.228 288.829,364.348 288.708,365.312 288.708 L 366.396 288.708 366.396 286.540 L 366.396 284.372 367.480 284.372 C 368.443 284.372,368.564 284.252,368.564 283.288 C 368.564 282.325,368.684 282.204,369.648 282.204 L 370.732 282.204 370.732 280.036 L 370.732 277.868 371.816 277.868 C 372.779 277.868,372.900 277.748,372.900 276.784 C 372.900 275.821,373.020 275.700,373.984 275.700 L 375.068 275.700 375.068 273.532 L 375.068 271.364 376.152 271.364 C 377.223 271.364,377.236 271.341,377.236 269.401 C 377.236 267.527,377.281 267.432,378.229 267.323 C 379.169 267.215,379.229 267.096,379.331 265.153 C 379.432 263.220,379.497 263.091,380.415 262.985 C 381.333 262.879,381.398 262.750,381.499 260.817 C 381.600 258.884,381.665 258.755,382.583 258.649 C 383.501 258.543,383.566 258.414,383.667 256.481 C 383.768 254.548,383.833 254.419,384.751 254.313 C 385.669 254.207,385.734 254.078,385.835 252.148 C 385.937 250.202,385.998 250.083,387.009 249.861 L 388.076 249.626 388.076 246.629 L 388.076 243.631 389.160 243.415 L 390.244 243.198 390.244 240.141 L 390.244 237.085 391.238 236.971 C 392.227 236.857,392.232 236.842,392.335 233.737 L 392.439 230.618 393.509 230.404 L 394.580 230.190 394.580 226.049 L 394.580 221.909 395.574 221.795 L 396.567 221.680 396.667 216.394 L 396.767 211.107 397.843 210.892 L 398.920 210.677 398.828 179.503 L 398.735 148.329 397.751 148.215 L 396.767 148.102 396.667 142.795 L 396.567 137.489 395.574 137.374 L 394.580 137.260 394.580 133.120 L 394.580 128.979 393.509 128.765 L 392.439 128.551 392.335 125.432 C 392.232 122.327,392.227 122.312,391.238 122.198 L 390.244 122.084 390.244 119.027 L 390.244 115.971 389.160 115.754 L 388.076 115.537 388.076 112.511 L 388.076 109.485 386.992 109.485 C 385.909 109.485,385.908 109.482,385.908 107.346 C 385.908 105.269,385.877 105.200,384.838 104.972 C 383.770 104.737,383.768 104.731,383.664 101.781 C 383.560 98.855,383.549 98.825,382.565 98.711 C 381.733 98.616,381.572 98.425,381.572 97.537 C 381.572 96.600,381.446 96.477,380.488 96.477 L 379.404 96.477 379.404 94.309 L 379.404 92.141 378.320 92.141 L 377.236 92.141 377.236 89.973 L 377.236 87.805 376.152 87.805 L 375.068 87.805 375.068 85.637 L 375.068 83.469 373.984 83.469 C 373.020 83.469,372.900 83.348,372.900 82.385 C 372.900 81.421,372.779 81.301,371.816 81.301 L 370.732 81.301 370.732 79.133 L 370.732 76.965 369.648 76.965 C 368.684 76.965,368.564 76.844,368.564 75.881 C 368.564 74.917,368.443 74.797,367.480 74.797 L 366.396 74.797 366.396 72.629 L 366.396 70.461 365.312 70.461 C 364.348 70.461,364.228 70.340,364.228 69.377 C 364.228 68.413,364.107 68.293,363.144 68.293 C 362.180 68.293,362.060 68.172,362.060 67.209 C 362.060 66.249,361.937 66.125,360.994 66.125 C 359.949 66.125,359.925 66.082,359.819 64.047 C 359.717 62.080,359.658 61.963,358.717 61.855 C 357.885 61.759,357.724 61.568,357.724 60.681 C 357.724 59.744,357.598 59.621,356.640 59.621 C 355.676 59.621,355.556 59.500,355.556 58.537 C 355.556 57.573,355.435 57.453,354.472 57.453 C 353.508 57.453,353.388 57.332,353.388 56.369 C 353.388 55.405,353.267 55.285,352.304 55.285 C 351.340 55.285,351.220 55.164,351.220 54.201 C 351.220 53.237,351.099 53.117,350.136 53.117 C 349.172 53.117,349.051 52.996,349.051 52.033 C 349.051 51.069,348.931 50.949,347.967 50.949 C 347.004 50.949,346.883 50.828,346.883 49.864 C 346.883 48.901,346.763 48.780,345.799 48.780 C 344.836 48.780,344.715 48.660,344.715 47.696 C 344.715 46.733,344.595 46.612,343.631 46.612 C 342.668 46.612,342.547 46.492,342.547 45.528 C 342.547 44.565,342.427 44.444,341.463 44.444 C 340.500 44.444,340.379 44.324,340.379 43.360 C 340.379 42.397,340.259 42.276,339.295 42.276 C 338.332 42.276,338.211 42.156,338.211 41.192 C 338.211 40.234,338.088 40.108,337.151 40.108 C 336.264 40.108,336.073 39.947,335.977 39.115 C 335.871 38.190,335.733 38.114,333.988 38.013 C 332.252 37.912,332.105 37.832,332.001 36.929 C 331.913 36.174,331.668 35.928,330.916 35.841 C 330.165 35.754,329.919 35.508,329.832 34.757 C 329.746 34.011,329.498 33.759,328.767 33.675 C 328.040 33.590,327.765 33.313,327.602 32.500 C 327.424 31.610,327.215 31.436,326.320 31.436 C 325.423 31.436,325.233 31.277,325.137 30.443 C 325.030 29.518,324.893 29.441,323.148 29.341 C 321.412 29.240,321.265 29.160,321.160 28.257 C 321.068 27.453,320.845 27.261,319.895 27.169 C 318.947 27.078,318.723 26.885,318.631 26.085 C 318.527 25.187,318.377 25.105,316.663 25.005 C 314.930 24.904,314.794 24.827,314.595 23.831 C 314.390 22.806,314.304 22.764,312.409 22.764 C 310.526 22.764,310.431 22.719,310.322 21.771 C 310.227 20.947,310.010 20.758,309.055 20.665 C 308.107 20.573,307.883 20.381,307.791 19.581 C 307.687 18.684,307.525 18.595,305.705 18.428 C 303.965 18.269,303.708 18.141,303.523 17.344 C 303.337 16.545,303.100 16.428,301.460 16.333 C 299.773 16.234,299.573 16.129,299.235 15.158 C 298.865 14.098,298.848 14.092,295.978 14.092 C 293.099 14.092,293.092 14.090,292.978 13.098 C 292.870 12.161,292.749 12.099,290.828 11.998 C 288.894 11.896,288.781 11.837,288.578 10.823 L 288.365 9.756 285.309 9.756 L 282.252 9.756 282.138 8.762 C 282.024 7.772,282.013 7.768,278.862 7.664 L 275.700 7.560 275.700 6.490 L 275.700 5.420 272.472 5.420 L 269.244 5.420 269.130 4.426 L 269.015 3.433 264.793 3.331 L 260.570 3.229 260.457 2.247 L 260.343 1.265 255.014 1.165 C 250.605 1.082,249.684 0.973,249.684 0.532 C 249.684 0.068,246.106 0.000,221.680 0.000 C 197.029 0.000,193.677 0.065,193.677 0.542 M48.780 32.298 C 48.780 33.413,49.493 33.593,53.930 33.599 C 57.399 33.604,57.453 33.617,57.453 34.466 C 57.453 35.424,58.213 35.759,60.410 35.767 C 61.592 35.772,61.753 35.884,61.855 36.766 C 61.945 37.547,62.182 37.784,62.963 37.874 C 63.727 37.962,63.957 38.181,63.957 38.823 C 63.957 39.460,64.212 39.708,65.041 39.874 C 65.884 40.042,66.125 40.283,66.125 40.958 C 66.125 41.632,66.366 41.873,67.209 42.042 C 68.052 42.210,68.293 42.451,68.293 43.126 C 68.293 43.800,68.534 44.041,69.377 44.210 C 70.294 44.393,70.461 44.594,70.461 45.519 C 70.461 46.434,70.603 46.612,71.332 46.612 C 72.164 46.612,72.214 46.750,72.458 49.684 C 72.702 52.607,72.756 52.755,73.575 52.755 L 74.435 52.755 74.435 59.440 L 74.435 66.125 73.577 66.125 C 72.673 66.125,72.267 67.145,72.267 69.422 C 72.267 70.289,72.118 70.461,71.364 70.461 C 70.606 70.461,70.461 70.631,70.461 71.521 C 70.461 72.408,70.299 72.599,69.467 72.695 C 68.526 72.803,68.468 72.920,68.365 74.887 C 68.259 76.922,68.235 76.965,67.191 76.965 C 66.251 76.965,66.125 77.091,66.125 78.031 C 66.125 79.075,66.082 79.099,64.047 79.205 C 62.080 79.308,61.963 79.366,61.855 80.307 C 61.759 81.139,61.568 81.301,60.681 81.301 C 59.746 81.301,59.621 81.428,59.621 82.373 L 59.621 83.446 55.375 83.548 L 51.129 83.650 51.015 84.643 L 50.901 85.637 47.696 85.637 L 44.492 85.637 44.378 84.643 C 44.264 83.653,44.251 83.649,41.125 83.545 C 38.009 83.442,37.985 83.434,37.873 82.461 C 37.766 81.537,37.641 81.475,35.682 81.373 C 33.647 81.267,33.604 81.243,33.604 80.199 C 33.604 79.261,33.477 79.133,32.544 79.133 C 31.657 79.133,31.466 78.971,31.370 78.139 C 31.281 77.365,31.041 77.121,30.284 77.033 C 29.533 76.946,29.287 76.700,29.200 75.949 C 29.112 75.192,28.868 74.952,28.094 74.863 C 27.262 74.767,27.100 74.577,27.100 73.689 C 27.100 72.752,26.974 72.629,26.016 72.629 L 24.932 72.629 24.932 70.461 L 24.932 68.293 23.848 68.293 L 22.764 68.293 22.764 63.572 C 22.764 60.975,22.601 58.546,22.402 58.173 C 22.160 57.721,22.160 57.422,22.402 57.273 C 22.610 57.144,22.764 55.296,22.764 52.939 L 22.764 48.828 23.758 48.714 C 24.697 48.606,24.757 48.487,24.859 46.544 C 24.961 44.611,25.025 44.482,25.943 44.376 C 26.699 44.289,26.945 44.044,27.032 43.292 C 27.119 42.541,27.365 42.295,28.116 42.208 C 28.867 42.121,29.113 41.875,29.200 41.124 C 29.287 40.373,29.533 40.127,30.284 40.040 C 31.035 39.953,31.281 39.707,31.368 38.956 C 31.455 38.205,31.701 37.959,32.452 37.872 C 33.204 37.785,33.449 37.539,33.536 36.783 C 33.642 35.865,33.771 35.801,35.704 35.699 C 37.641 35.598,37.766 35.535,37.873 34.609 L 37.986 33.627 42.209 33.525 L 46.432 33.424 46.546 32.430 C 46.705 31.046,48.780 30.923,48.780 32.298 M42.276 45.502 C 42.276 46.556,42.238 46.578,40.199 46.685 L 38.121 46.793 38.013 48.871 C 37.906 50.910,37.884 50.949,36.831 50.949 L 35.758 50.949 35.855 58.446 L 35.953 65.944 36.947 66.058 C 37.779 66.154,37.940 66.345,37.940 67.233 C 37.940 68.164,38.069 68.293,39.000 68.293 C 39.888 68.293,40.079 68.454,40.175 69.286 C 40.283 70.226,40.402 70.286,42.344 70.388 C 44.278 70.489,44.406 70.553,44.512 71.472 L 44.625 72.448 48.366 72.551 C 52.267 72.659,53.117 72.410,53.117 71.157 C 53.117 70.607,53.462 70.479,55.194 70.388 C 57.149 70.286,57.279 70.223,57.384 69.308 C 57.471 68.557,57.717 68.311,58.468 68.224 C 59.225 68.137,59.465 67.893,59.554 67.118 C 59.632 66.442,59.878 66.125,60.323 66.125 C 61.679 66.125,61.808 65.379,61.706 58.129 L 61.608 51.129 60.670 51.020 C 59.828 50.922,59.698 50.699,59.405 48.852 L 59.079 46.793 57.204 46.685 C 55.468 46.584,55.321 46.504,55.216 45.601 L 55.104 44.625 48.690 44.526 L 42.276 44.428 42.276 45.502 M260.524 53.981 C 260.524 55.179,261.006 55.285,266.492 55.285 L 271.316 55.285 271.430 56.278 C 271.544 57.269,271.555 57.272,274.706 57.376 C 277.752 57.477,277.868 57.512,277.868 58.328 C 277.868 59.369,278.624 59.609,281.933 59.616 C 284.263 59.620,284.372 59.659,284.372 60.485 C 284.372 61.507,284.960 61.789,287.087 61.789 C 288.441 61.789,288.674 61.901,288.773 62.602 C 288.871 63.289,289.207 63.465,290.949 63.741 C 292.637 64.009,293.028 64.205,293.117 64.825 C 293.205 65.446,293.597 65.642,295.285 65.909 C 296.973 66.177,297.364 66.373,297.453 66.993 C 297.542 67.615,297.934 67.810,299.639 68.080 C 301.446 68.367,301.716 68.514,301.716 69.212 C 301.716 70.108,302.526 70.448,304.673 70.456 C 305.855 70.460,306.017 70.572,306.119 71.454 C 306.209 72.235,306.446 72.473,307.227 72.562 C 307.997 72.651,308.220 72.868,308.220 73.527 C 308.220 74.175,308.474 74.434,309.282 74.611 C 310.006 74.770,310.380 75.096,310.457 75.634 C 310.551 76.292,310.909 76.477,312.628 76.749 C 314.475 77.043,314.698 77.173,314.796 78.014 C 314.879 78.729,315.136 78.979,315.877 79.064 C 316.628 79.151,316.874 79.397,316.961 80.148 C 317.048 80.899,317.294 81.146,318.045 81.232 C 318.796 81.319,319.042 81.565,319.129 82.316 C 319.216 83.067,319.462 83.314,320.213 83.400 C 320.964 83.487,321.210 83.733,321.297 84.484 C 321.384 85.235,321.630 85.482,322.381 85.568 C 323.132 85.655,323.378 85.901,323.465 86.652 C 323.552 87.403,323.798 87.650,324.549 87.736 C 325.300 87.823,325.546 88.069,325.633 88.820 C 325.720 89.578,325.965 89.817,326.739 89.907 C 327.519 89.996,327.733 90.210,327.733 90.900 C 327.733 91.636,327.909 91.780,328.817 91.780 L 329.901 91.780 329.901 93.948 L 329.901 96.116 330.985 96.116 C 331.948 96.116,332.069 96.236,332.069 97.200 C 332.069 98.159,332.191 98.284,333.135 98.284 C 334.179 98.284,334.203 98.326,334.309 100.361 C 334.412 102.328,334.470 102.445,335.411 102.553 C 336.243 102.649,336.405 102.840,336.405 103.728 C 336.405 104.606,336.554 104.788,337.273 104.788 C 338.064 104.788,338.162 104.978,338.392 106.956 C 338.618 108.905,338.728 109.124,339.476 109.124 C 340.225 109.124,340.334 109.342,340.560 111.292 C 340.790 113.270,340.888 113.460,341.680 113.460 C 342.441 113.460,342.548 113.626,342.552 114.815 C 342.560 117.035,342.893 117.796,343.854 117.796 C 344.630 117.796,344.715 117.952,344.715 119.371 C 344.715 122.849,345.102 124.300,346.029 124.300 C 346.805 124.300,346.885 124.459,346.904 126.016 C 346.943 129.181,347.348 130.611,348.243 130.739 C 348.987 130.845,349.052 131.046,349.056 133.268 C 349.063 136.565,349.303 137.308,350.358 137.308 C 351.211 137.308,351.220 137.347,351.220 141.073 C 351.220 145.458,351.358 145.980,352.523 145.980 L 353.388 145.980 353.388 151.355 C 353.388 158.053,353.548 158.988,354.697 158.988 L 355.556 158.988 355.556 167.660 C 355.556 176.127,355.538 176.332,354.824 176.332 C 353.566 176.332,353.388 177.795,353.388 188.099 L 353.388 198.013 352.526 198.013 C 351.372 198.013,351.230 198.689,351.224 204.221 C 351.220 208.687,351.199 208.805,350.411 208.918 C 349.382 209.065,349.101 210.514,349.072 215.808 C 349.052 219.651,349.042 219.693,348.193 219.693 C 347.189 219.693,346.883 220.707,346.883 224.049 C 346.883 225.945,346.806 226.158,346.075 226.262 C 345.180 226.390,344.775 227.820,344.736 230.985 C 344.717 232.542,344.636 232.701,343.861 232.701 C 342.934 232.701,342.547 234.152,342.547 237.629 C 342.547 239.052,342.463 239.205,341.680 239.205 C 340.888 239.205,340.790 239.395,340.560 241.373 C 340.334 243.323,340.225 243.541,339.476 243.541 C 338.728 243.541,338.618 243.760,338.392 245.709 C 338.162 247.687,338.064 247.877,337.273 247.877 C 336.511 247.877,336.404 248.044,336.400 249.232 C 336.392 251.453,336.060 252.213,335.098 252.213 C 334.386 252.213,334.237 252.397,334.237 253.273 C 334.237 254.161,334.075 254.352,333.243 254.448 C 332.302 254.556,332.244 254.673,332.141 256.640 C 332.035 258.675,332.011 258.717,330.967 258.717 C 330.028 258.717,329.901 258.844,329.901 259.777 C 329.901 260.665,329.739 260.856,328.907 260.952 C 327.966 261.060,327.907 261.177,327.805 263.144 C 327.699 265.179,327.675 265.221,326.631 265.221 C 325.687 265.221,325.565 265.346,325.565 266.305 C 325.565 267.269,325.444 267.389,324.481 267.389 C 323.517 267.389,323.397 267.510,323.397 268.473 C 323.397 269.437,323.276 269.557,322.313 269.557 C 321.354 269.557,321.229 269.680,321.229 270.617 C 321.229 271.505,321.067 271.696,320.235 271.792 C 319.461 271.881,319.216 272.121,319.129 272.878 C 319.042 273.629,318.796 273.875,318.045 273.962 C 317.288 274.049,317.048 274.294,316.959 275.068 C 316.863 275.900,316.672 276.061,315.784 276.061 C 314.848 276.061,314.724 276.187,314.724 277.145 C 314.724 278.109,314.604 278.229,313.640 278.229 C 312.722 278.229,312.556 278.369,312.556 279.142 C 312.556 279.867,312.333 280.099,311.472 280.271 C 310.644 280.437,310.388 280.684,310.388 281.322 C 310.388 281.963,310.159 282.183,309.395 282.270 C 308.625 282.359,308.376 282.600,308.290 283.341 C 308.190 284.206,307.985 284.325,306.122 284.605 C 304.397 284.864,304.047 285.042,303.952 285.705 C 303.874 286.259,303.548 286.530,302.868 286.609 C 302.112 286.696,301.872 286.940,301.783 287.715 C 301.688 288.536,301.492 288.708,300.654 288.708 C 298.449 288.708,297.380 289.121,297.380 289.971 C 297.380 290.695,297.146 290.809,295.212 291.028 C 293.256 291.250,293.044 291.355,293.044 292.112 C 293.044 292.869,292.833 292.975,290.876 293.196 C 288.897 293.420,288.708 293.517,288.708 294.309 C 288.708 295.111,288.553 295.184,286.631 295.285 C 284.664 295.387,284.547 295.446,284.439 296.387 C 284.327 297.360,284.274 297.380,281.909 297.385 C 278.611 297.392,277.868 297.631,277.868 298.687 C 277.868 299.520,277.776 299.548,275.068 299.552 C 270.837 299.558,269.588 299.843,269.332 300.861 L 269.118 301.716 263.104 301.720 C 255.585 301.725,254.441 301.893,254.156 303.029 L 253.942 303.884 192.373 303.884 L 130.804 303.884 130.804 222.764 L 130.804 141.644 152.484 141.644 L 174.164 141.644 174.164 201.265 L 174.164 260.885 215.086 260.843 C 258.361 260.797,258.109 260.805,258.291 259.528 C 258.391 258.821,258.622 258.717,260.097 258.713 C 263.211 258.706,264.488 258.345,264.724 257.404 C 264.908 256.671,265.159 256.549,266.496 256.549 C 268.608 256.549,269.196 256.266,269.196 255.246 C 269.196 254.476,269.356 254.381,270.665 254.381 C 272.463 254.381,273.532 253.853,273.532 252.965 C 273.532 252.426,273.916 252.248,275.519 252.048 C 277.208 251.837,277.538 251.672,277.721 250.943 C 277.869 250.355,278.237 250.052,278.896 249.976 C 279.640 249.889,279.881 249.641,279.970 248.871 C 280.066 248.039,280.256 247.877,281.144 247.877 C 282.072 247.877,282.204 247.747,282.204 246.835 C 282.204 245.844,282.301 245.780,284.168 245.547 C 285.968 245.322,286.151 245.213,286.365 244.241 C 286.541 243.435,286.802 243.180,287.444 243.180 C 288.090 243.180,288.346 242.924,288.528 242.096 C 288.708 241.274,288.967 241.012,289.598 241.012 C 290.503 241.012,290.863 240.228,290.871 238.235 C 290.876 237.251,291.019 237.069,291.870 236.971 C 292.644 236.882,292.888 236.642,292.976 235.885 C 293.063 235.134,293.309 234.887,294.060 234.801 C 294.811 234.714,295.057 234.468,295.144 233.717 C 295.231 232.966,295.477 232.719,296.226 232.633 C 296.987 232.545,297.236 232.286,297.381 231.436 C 297.510 230.680,297.798 230.319,298.335 230.242 C 299.108 230.132,299.548 228.983,299.548 227.079 C 299.548 226.438,299.778 226.219,300.542 226.131 C 301.481 226.023,301.542 225.904,301.643 223.961 C 301.745 222.028,301.809 221.899,302.727 221.793 C 303.647 221.687,303.710 221.560,303.812 219.605 C 303.907 217.776,304.020 217.505,304.763 217.318 C 305.692 217.085,306.041 215.840,306.048 212.737 C 306.052 211.273,306.157 211.021,306.762 211.021 C 307.890 211.021,308.220 209.880,308.220 205.986 C 308.220 202.390,308.230 202.349,309.085 202.349 C 310.307 202.349,310.388 201.910,310.388 195.297 L 310.388 189.389 311.382 189.274 L 312.376 189.160 312.484 176.152 C 312.610 160.828,312.511 159.443,311.266 159.130 C 310.408 158.915,310.388 158.828,310.388 155.185 C 310.388 150.849,310.247 150.316,309.099 150.316 C 308.279 150.316,308.245 150.204,308.144 147.154 C 308.040 144.003,308.036 143.992,307.046 143.878 C 306.120 143.772,306.052 143.648,306.048 142.072 C 306.041 139.034,305.684 137.720,304.834 137.598 C 304.190 137.506,304.034 137.178,303.872 135.571 C 303.688 133.733,303.200 132.990,302.168 132.978 C 301.920 132.974,301.716 132.586,301.716 132.114 C 301.716 130.039,301.286 128.997,300.429 128.997 C 299.751 128.997,299.573 128.777,299.481 127.823 C 299.387 126.844,299.202 126.630,298.374 126.534 C 297.437 126.426,297.380 126.316,297.380 124.606 C 297.380 122.922,297.302 122.762,296.296 122.383 C 295.524 122.091,295.212 121.734,295.212 121.140 C 295.212 120.507,294.957 120.256,294.148 120.094 C 293.335 119.932,293.058 119.657,292.974 118.929 C 292.889 118.198,292.637 117.950,291.892 117.864 C 291.141 117.778,290.895 117.531,290.808 116.780 C 290.721 116.029,290.475 115.783,289.724 115.696 C 288.973 115.610,288.727 115.363,288.640 114.612 C 288.552 113.855,288.308 113.615,287.534 113.526 C 286.750 113.436,286.540 113.224,286.540 112.523 C 286.540 111.825,286.308 111.589,285.456 111.418 C 284.613 111.250,284.372 111.009,284.372 110.334 C 284.372 109.660,284.131 109.419,283.288 109.250 C 282.469 109.086,282.204 108.835,282.204 108.220 C 282.204 107.614,281.940 107.355,281.164 107.199 C 280.454 107.057,280.053 106.712,279.903 106.112 C 279.713 105.357,279.401 105.198,277.691 104.984 C 275.926 104.764,275.700 104.641,275.700 103.904 C 275.700 103.027,274.653 102.620,272.403 102.620 C 271.547 102.620,271.364 102.467,271.364 101.752 C 271.364 100.960,271.174 100.862,269.196 100.632 C 267.259 100.408,267.028 100.294,267.028 99.563 C 267.028 98.704,265.378 98.295,261.879 98.287 C 260.692 98.284,260.524 98.177,260.524 97.420 C 260.524 96.572,260.446 96.552,256.188 96.296 C 252.019 96.046,251.852 96.005,251.852 95.228 C 251.852 93.982,249.504 93.948,163.629 93.948 L 85.276 93.948 85.276 92.864 C 85.276 91.900,85.396 91.780,86.360 91.780 C 87.260 91.780,87.444 91.634,87.444 90.921 C 87.444 90.262,87.688 90.014,88.502 89.852 C 89.323 89.687,89.587 89.417,89.677 88.646 C 89.760 87.931,90.045 87.594,90.696 87.443 C 91.491 87.259,91.620 87.001,91.780 85.276 C 91.939 83.550,92.068 83.292,92.864 83.107 C 93.659 82.923,93.788 82.665,93.948 80.939 C 94.107 79.215,94.236 78.956,95.032 78.770 C 95.920 78.563,95.937 78.494,96.037 74.553 L 96.138 70.546 97.211 70.332 L 98.284 70.117 98.284 61.617 L 98.284 53.117 179.404 53.117 L 260.524 53.117 260.524 53.981 M243.246 142.638 C 243.360 143.628,243.371 143.632,246.522 143.736 L 249.684 143.840 249.684 144.910 C 249.684 145.977,249.690 145.980,251.852 145.980 L 254.020 145.980 254.020 147.064 C 254.020 148.028,254.140 148.148,255.104 148.148 C 255.907 148.148,256.188 148.317,256.188 148.799 C 256.188 149.631,256.873 150.316,257.706 150.316 C 258.091 150.316,258.356 150.581,258.356 150.967 C 258.356 151.799,259.041 152.484,259.874 152.484 C 260.259 152.484,260.524 152.749,260.524 153.135 C 260.524 153.967,261.209 154.652,262.042 154.652 C 262.427 154.652,262.692 154.917,262.692 155.303 C 262.692 156.135,263.377 156.820,264.210 156.820 C 264.691 156.820,264.860 157.101,264.860 157.904 C 264.860 158.868,264.980 158.988,265.944 158.988 L 267.028 158.988 267.028 161.156 C 267.028 163.319,267.031 163.324,268.101 163.324 L 269.173 163.324 269.275 167.570 L 269.377 171.816 270.370 171.930 L 271.364 172.044 271.364 178.500 L 271.364 184.957 270.370 185.071 C 269.381 185.185,269.376 185.198,269.273 188.324 C 269.169 191.440,269.161 191.464,268.189 191.576 C 267.265 191.683,267.202 191.808,267.100 193.767 C 267.012 195.464,266.876 195.845,266.360 195.845 C 265.311 195.845,264.860 196.620,264.860 198.422 C 264.860 200.020,264.794 200.140,263.866 200.247 C 262.926 200.355,262.867 200.472,262.764 202.439 C 262.658 204.474,262.634 204.517,261.590 204.517 C 260.646 204.517,260.524 204.641,260.524 205.601 C 260.524 206.564,260.403 206.685,259.440 206.685 C 258.476 206.685,258.356 206.805,258.356 207.769 C 258.356 208.831,258.319 208.853,256.518 208.853 C 254.807 208.853,254.651 208.928,254.271 209.937 C 253.951 210.783,253.641 211.021,252.857 211.021 C 251.985 211.021,251.852 211.162,251.852 212.087 C 251.852 213.131,251.810 213.155,249.774 213.261 C 247.807 213.364,247.690 213.422,247.582 214.363 L 247.468 215.357 244.411 215.357 L 241.355 215.357 241.140 216.431 L 240.925 217.506 235.639 217.606 L 230.352 217.706 230.238 218.699 L 230.124 219.693 224.728 219.693 L 219.332 219.693 219.332 180.668 L 219.332 141.644 231.232 141.644 L 243.132 141.644 243.246 142.638 " stroke="none" fill="#04848c" fill-rule="evenodd"></path><path id="path1" d="" stroke="none" fill="#08848c" fill-rule="evenodd"></path><path id="path2" d="" stroke="none" fill="#08848c" fill-rule="evenodd"></path><path id="path3" d="" stroke="none" fill="#08848c" fill-rule="evenodd"></path><path id="path4" d="" stroke="none" fill="#08848c" fill-rule="evenodd"></path></g></svg>