<svg id="svg" version="1.1" xmlns="http://www.w3.org/2000/svg" xmlns:xlink="http://www.w3.org/1999/xlink" width="400" height="430.939226519337" viewBox="0, 0, 400,430.939226519337"><g id="svgg"><path id="path0" d="M188.800 0.600 C 188.800 1.108,187.843 1.200,182.591 1.200 L 176.383 1.200 175.927 2.200 C 175.502 3.132,175.276 3.200,172.586 3.200 C 168.468 3.200,167.237 3.514,166.955 4.635 C 166.739 5.497,166.488 5.577,163.661 5.684 C 160.832 5.791,160.590 5.868,160.472 6.700 C 160.359 7.494,160.100 7.606,158.272 7.647 C 154.956 7.723,153.817 8.083,153.672 9.103 C 153.558 9.907,153.318 10.000,151.372 10.000 C 149.334 10.000,149.200 10.060,149.200 10.979 C 149.200 11.878,149.028 11.968,147.100 12.079 C 145.150 12.191,144.991 12.277,144.875 13.284 C 144.753 14.345,144.687 14.370,141.675 14.484 C 138.860 14.590,138.589 14.674,138.476 15.474 C 138.371 16.208,138.007 16.392,136.208 16.616 C 134.388 16.844,134.029 17.028,133.825 17.842 C 133.615 18.678,133.352 18.800,131.758 18.800 C 130.095 18.800,129.890 18.908,129.478 20.000 C 129.157 20.850,128.759 21.200,128.112 21.200 C 127.411 21.200,127.200 21.426,127.200 22.179 C 127.200 23.078,127.028 23.168,125.100 23.279 C 123.141 23.392,122.991 23.474,122.873 24.500 C 122.767 25.421,122.556 25.600,121.573 25.600 C 120.595 25.600,120.400 25.763,120.400 26.579 C 120.400 27.478,120.228 27.568,118.300 27.679 C 116.341 27.792,116.191 27.874,116.073 28.900 C 115.974 29.764,115.738 30.000,114.973 30.000 C 114.202 30.000,114.000 30.207,114.000 31.000 C 114.000 31.897,113.838 32.000,112.433 32.000 C 110.253 32.000,109.600 32.333,109.600 33.443 C 109.600 34.240,109.399 34.400,108.400 34.400 C 107.387 34.400,107.200 34.556,107.200 35.400 C 107.200 36.191,106.998 36.400,106.232 36.400 C 105.481 36.400,105.204 36.670,105.000 37.600 C 104.796 38.530,104.519 38.800,103.768 38.800 C 103.009 38.800,102.800 39.010,102.800 39.773 C 102.800 40.538,102.564 40.774,101.700 40.873 C 100.842 40.972,100.573 41.237,100.475 42.079 C 100.362 43.059,100.179 43.169,98.475 43.279 C 96.879 43.382,96.581 43.534,96.472 44.300 C 96.373 45.000,96.083 45.200,95.172 45.200 L 94.000 45.200 94.000 41.429 C 94.000 37.577,93.577 36.400,92.192 36.400 C 91.810 36.400,91.605 35.758,91.521 34.300 C 91.416 32.471,91.284 32.184,90.500 32.072 C 89.849 31.980,89.600 31.676,89.600 30.972 C 89.600 30.159,89.404 30.000,88.400 30.000 C 87.212 30.000,87.200 29.978,87.200 27.800 C 87.200 25.736,87.140 25.600,86.227 25.600 C 85.462 25.600,85.226 25.364,85.127 24.500 C 85.027 23.636,84.764 23.373,83.900 23.273 C 83.036 23.174,82.800 22.938,82.800 22.173 C 82.800 21.409,82.591 21.200,81.827 21.200 C 81.062 21.200,80.826 20.964,80.727 20.100 C 80.627 19.236,80.364 18.973,79.500 18.873 C 78.647 18.775,78.400 18.535,78.400 17.805 C 78.400 17.089,78.119 16.802,77.224 16.605 C 76.423 16.429,76.009 16.069,75.924 15.474 C 75.819 14.737,75.503 14.581,73.900 14.478 C 72.406 14.382,72.000 14.207,72.000 13.658 C 72.000 12.526,71.152 12.000,69.328 12.000 C 67.835 12.000,67.583 11.872,67.364 11.000 C 67.123 10.039,66.990 10.000,63.957 10.000 C 60.894 10.000,60.800 9.972,60.800 9.043 C 60.800 7.626,60.554 7.600,47.467 7.604 C 33.544 7.609,32.488 7.709,32.151 9.053 C 31.938 9.902,31.691 10.000,29.757 10.000 C 27.735 10.000,27.600 10.061,27.600 10.979 C 27.600 11.878,27.428 11.968,25.500 12.079 C 23.541 12.192,23.391 12.274,23.273 13.300 C 23.153 14.350,23.047 14.400,20.973 14.400 C 18.922 14.400,18.800 14.456,18.800 15.400 C 18.800 16.096,18.581 16.400,18.080 16.400 C 17.166 16.400,16.400 17.156,16.400 18.058 C 16.400 18.607,15.994 18.782,14.500 18.878 C 12.771 18.989,12.589 19.097,12.476 20.076 C 12.380 20.907,12.107 21.180,11.276 21.276 C 10.279 21.391,10.191 21.554,10.079 23.500 C 9.962 25.531,9.919 25.600,8.779 25.600 C 7.788 25.600,7.600 25.759,7.600 26.600 C 7.600 27.400,7.400 27.600,6.600 27.600 C 5.656 27.600,5.600 27.722,5.600 29.773 C 5.600 31.847,5.550 31.953,4.500 32.073 C 3.474 32.191,3.392 32.341,3.279 34.300 C 3.168 36.228,3.078 36.400,2.179 36.400 C 1.259 36.400,1.200 36.533,1.200 38.600 C 1.200 40.289,1.061 40.800,0.600 40.800 C 0.076 40.800,0.000 42.911,0.000 57.400 C 0.000 71.889,0.076 74.000,0.600 74.000 C 1.061 74.000,1.200 74.511,1.200 76.200 C 1.200 78.267,1.259 78.400,2.179 78.400 C 3.078 78.400,3.168 78.572,3.279 80.500 C 3.391 82.449,3.478 82.609,4.480 82.725 C 5.480 82.840,5.569 83.003,5.680 84.925 C 5.783 86.711,5.922 87.017,6.676 87.125 C 7.289 87.212,7.589 87.572,7.676 88.325 C 7.773 89.162,8.043 89.428,8.900 89.527 C 9.764 89.626,10.000 89.862,10.000 90.627 C 10.000 91.391,10.209 91.600,10.973 91.600 C 11.738 91.600,11.974 91.836,12.073 92.700 C 12.173 93.564,12.436 93.827,13.300 93.927 C 14.164 94.026,14.400 94.262,14.400 95.027 C 14.400 95.801,14.607 96.000,15.410 96.000 C 16.212 96.000,16.469 96.247,16.660 97.200 C 16.843 98.117,17.118 98.400,17.822 98.400 C 18.474 98.400,18.782 98.664,18.872 99.300 C 18.983 100.082,19.271 100.216,21.075 100.320 C 22.997 100.431,23.160 100.520,23.275 101.520 C 23.391 102.520,23.553 102.609,25.475 102.720 C 27.263 102.824,27.567 102.961,27.675 103.720 C 27.791 104.534,28.047 104.609,31.100 104.716 C 34.265 104.828,34.400 104.871,34.400 105.773 C 34.400 107.146,34.791 107.200,44.833 107.200 L 54.000 107.200 54.000 108.192 C 54.000 108.917,53.731 109.252,53.000 109.436 C 52.040 109.677,52.000 109.812,52.000 112.817 C 52.000 115.934,51.996 115.947,50.900 116.073 C 49.810 116.199,49.799 116.230,49.684 119.500 C 49.571 122.707,49.540 122.800,48.584 122.800 C 47.621 122.800,47.600 122.867,47.600 126.000 C 47.600 129.109,47.573 129.200,46.643 129.200 C 45.327 129.200,45.200 129.748,45.200 135.433 L 45.200 140.400 44.200 140.400 L 43.200 140.400 43.200 147.000 L 43.200 153.600 42.208 153.600 C 40.758 153.600,40.768 153.441,40.889 175.400 L 41.000 195.400 42.100 195.527 L 43.200 195.653 43.200 203.227 L 43.200 210.800 44.200 210.800 L 45.200 210.800 45.200 215.374 C 45.200 220.473,45.567 222.000,46.790 222.000 C 47.536 222.000,47.600 222.254,47.600 225.192 C 47.600 228.250,47.642 228.395,48.584 228.632 C 49.508 228.864,49.575 229.065,49.684 231.939 C 49.798 234.948,49.819 235.002,50.900 235.127 C 51.997 235.253,52.000 235.263,52.000 238.419 C 52.000 241.445,52.043 241.596,52.980 241.831 C 53.840 242.047,53.976 242.330,54.080 244.138 C 54.191 246.047,54.280 246.209,55.284 246.325 C 56.345 246.447,56.370 246.513,56.484 249.525 C 56.590 252.340,56.674 252.611,57.474 252.724 C 58.210 252.829,58.392 253.194,58.620 255.024 C 58.862 256.959,58.996 257.200,59.825 257.200 C 60.669 257.200,60.770 257.401,60.879 259.300 C 60.985 261.141,61.113 261.416,61.916 261.530 C 62.563 261.622,62.901 262.004,63.066 262.830 C 63.246 263.729,63.520 264.000,64.250 264.000 C 65.135 264.000,65.200 264.151,65.200 266.200 C 65.200 268.369,65.217 268.400,66.379 268.400 C 67.519 268.400,67.562 268.469,67.679 270.500 C 67.783 272.311,67.921 272.617,68.676 272.725 C 69.289 272.812,69.589 273.172,69.676 273.925 C 69.773 274.762,70.043 275.028,70.900 275.127 C 71.934 275.246,72.000 275.371,72.000 277.227 C 72.000 279.065,72.068 279.200,73.000 279.200 C 73.844 279.200,74.000 279.387,74.000 280.400 C 74.000 281.467,74.133 281.600,75.200 281.600 C 76.267 281.600,76.400 281.733,76.400 282.800 C 76.400 283.813,76.556 284.000,77.400 284.000 C 78.288 284.000,78.401 284.168,78.406 285.500 C 78.413 287.286,78.700 287.798,79.900 288.173 C 80.510 288.363,80.800 288.768,80.800 289.427 C 80.800 290.191,81.009 290.400,81.773 290.400 C 82.538 290.400,82.774 290.636,82.873 291.500 C 82.973 292.364,83.236 292.627,84.100 292.727 C 84.964 292.826,85.200 293.062,85.200 293.827 C 85.200 294.591,85.409 294.800,86.173 294.800 C 86.938 294.800,87.174 295.036,87.273 295.900 C 87.373 296.764,87.636 297.027,88.500 297.127 C 89.364 297.226,89.600 297.462,89.600 298.227 C 89.600 298.991,89.809 299.200,90.573 299.200 C 91.338 299.200,91.574 299.436,91.673 300.300 C 91.773 301.164,92.036 301.427,92.900 301.527 C 93.764 301.626,94.000 301.862,94.000 302.627 C 94.000 303.391,94.209 303.600,94.973 303.600 C 95.738 303.600,95.974 303.836,96.073 304.700 C 96.173 305.564,96.436 305.827,97.300 305.927 C 98.164 306.026,98.400 306.262,98.400 307.027 C 98.400 307.791,98.609 308.000,99.373 308.000 C 100.138 308.000,100.374 308.236,100.473 309.100 C 100.573 309.964,100.836 310.227,101.700 310.327 C 102.567 310.426,102.800 310.661,102.800 311.437 C 102.800 312.209,103.057 312.471,104.000 312.660 C 104.929 312.846,105.200 313.114,105.200 313.850 C 105.200 314.589,105.415 314.800,106.172 314.800 C 106.876 314.800,107.180 315.049,107.272 315.700 C 107.378 316.444,107.764 316.665,109.500 316.973 C 111.322 317.297,111.600 317.469,111.600 318.273 C 111.600 319.036,111.812 319.200,112.800 319.200 C 113.799 319.200,114.000 319.360,114.000 320.157 C 114.000 321.267,114.653 321.600,116.833 321.600 C 118.238 321.600,118.400 321.703,118.400 322.600 C 118.400 323.400,118.600 323.600,119.400 323.600 C 120.188 323.600,120.400 323.803,120.400 324.557 C 120.400 325.667,121.053 326.000,123.233 326.000 C 124.638 326.000,124.800 326.103,124.800 327.000 C 124.800 327.844,124.987 328.000,126.000 328.000 C 126.999 328.000,127.200 328.160,127.200 328.957 C 127.200 330.067,127.853 330.400,130.033 330.400 C 131.438 330.400,131.600 330.503,131.600 331.400 C 131.600 332.344,131.722 332.400,133.773 332.400 C 135.847 332.400,135.953 332.450,136.073 333.500 C 136.191 334.526,136.341 334.608,138.300 334.721 C 140.228 334.832,140.400 334.922,140.400 335.821 C 140.400 336.740,140.534 336.800,142.573 336.800 C 144.647 336.800,144.753 336.850,144.873 337.900 C 144.991 338.924,145.143 339.008,147.075 339.120 C 148.863 339.224,149.167 339.361,149.275 340.120 C 149.391 340.934,149.647 341.009,152.675 341.116 C 155.906 341.230,155.952 341.246,156.075 342.316 C 156.197 343.378,156.262 343.402,159.274 343.516 C 162.099 343.623,162.359 343.704,162.474 344.516 C 162.594 345.357,162.810 345.406,166.875 345.513 L 171.149 345.627 171.275 346.713 L 171.400 347.800 175.674 347.913 C 179.742 348.021,179.954 348.069,180.074 348.913 C 180.197 349.779,180.360 349.805,186.800 350.000 L 193.400 350.200 193.527 351.303 L 193.654 352.407 216.527 352.303 L 239.400 352.200 239.526 351.110 L 239.651 350.019 246.326 349.910 C 252.875 349.802,253.002 349.783,253.126 348.913 C 253.246 348.069,253.458 348.021,257.526 347.913 L 261.800 347.800 261.925 346.713 L 262.051 345.627 266.325 345.513 C 270.414 345.405,270.606 345.361,270.728 344.500 C 270.845 343.675,271.066 343.600,273.395 343.600 C 276.569 343.600,277.200 343.361,277.200 342.157 C 277.200 341.264,277.346 341.200,279.400 341.200 C 281.480 341.200,281.600 341.145,281.600 340.200 C 281.600 339.235,281.692 339.200,284.226 339.200 C 287.177 339.200,288.400 338.733,288.400 337.607 C 288.400 336.966,288.741 336.822,290.500 336.721 C 292.329 336.616,292.616 336.484,292.728 335.700 C 292.835 334.945,293.103 334.800,294.395 334.800 C 296.538 334.800,297.200 334.464,297.200 333.378 C 297.200 332.531,297.399 332.430,299.300 332.321 C 301.111 332.217,301.417 332.079,301.525 331.324 C 301.612 330.711,301.972 330.411,302.725 330.324 C 303.557 330.228,303.828 329.956,303.925 329.120 C 304.040 328.120,304.203 328.031,306.125 327.920 C 307.891 327.818,308.218 327.673,308.321 326.949 C 308.420 326.258,308.808 326.049,310.380 325.840 C 312.008 325.624,312.357 325.425,312.566 324.592 C 312.748 323.869,313.085 323.600,313.808 323.600 C 314.579 323.600,314.800 323.393,314.800 322.673 C 314.800 321.869,315.078 321.697,316.900 321.373 C 318.615 321.068,319.023 320.839,319.125 320.124 C 319.212 319.511,319.572 319.211,320.325 319.124 C 321.087 319.036,321.437 318.738,321.528 318.100 C 321.620 317.449,321.924 317.200,322.628 317.200 C 323.438 317.200,323.600 317.003,323.600 316.021 C 323.600 314.882,323.671 314.838,325.684 314.721 C 327.533 314.614,327.794 314.487,328.000 313.600 C 328.147 312.968,328.558 312.553,329.116 312.472 C 329.659 312.394,330.093 311.971,330.243 311.372 C 330.416 310.682,330.764 310.400,331.443 310.400 C 332.240 310.400,332.400 310.199,332.400 309.200 C 332.400 308.133,332.533 308.000,333.600 308.000 C 334.605 308.000,334.800 307.841,334.800 307.027 C 334.800 306.262,335.036 306.026,335.900 305.927 C 336.764 305.827,337.027 305.564,337.127 304.700 C 337.226 303.836,337.462 303.600,338.227 303.600 C 338.991 303.600,339.200 303.391,339.200 302.627 C 339.200 301.862,339.436 301.626,340.300 301.527 C 341.164 301.427,341.427 301.164,341.527 300.300 C 341.626 299.436,341.862 299.200,342.627 299.200 C 343.398 299.200,343.600 298.993,343.600 298.200 C 343.600 297.397,343.799 297.200,344.610 297.200 C 345.412 297.200,345.669 296.953,345.860 296.000 C 346.046 295.071,346.314 294.800,347.050 294.800 C 347.797 294.800,348.000 294.586,348.000 293.800 C 348.000 293.053,348.211 292.800,348.835 292.800 C 349.392 292.800,349.818 292.407,350.116 291.617 C 350.378 290.923,350.901 290.386,351.381 290.317 C 352.069 290.219,352.219 289.863,352.321 288.100 C 352.438 286.069,352.481 286.000,353.621 286.000 C 354.603 286.000,354.800 285.838,354.800 285.028 C 354.800 284.324,355.049 284.020,355.700 283.928 C 356.344 283.836,356.636 283.488,356.727 282.700 C 356.815 281.931,357.081 281.600,357.612 281.600 C 358.582 281.600,359.200 280.443,359.200 278.626 C 359.200 277.372,359.320 277.200,360.200 277.200 C 360.974 277.200,361.200 276.994,361.200 276.288 C 361.200 275.641,361.550 275.243,362.400 274.922 C 363.489 274.511,363.600 274.303,363.600 272.663 C 363.600 271.093,363.718 270.839,364.500 270.728 C 365.144 270.636,365.436 270.288,365.527 269.500 C 365.610 268.772,365.887 268.400,366.347 268.400 C 367.471 268.400,368.000 267.552,368.000 265.748 C 368.000 264.298,368.129 264.037,368.900 263.928 C 369.682 263.817,369.816 263.529,369.920 261.725 C 370.031 259.803,370.120 259.640,371.120 259.525 C 372.120 259.409,372.209 259.247,372.320 257.325 C 372.424 255.537,372.561 255.233,373.320 255.125 C 374.080 255.017,374.216 254.714,374.321 252.900 C 374.418 251.214,374.580 250.800,375.141 250.800 C 376.269 250.800,376.800 249.955,376.800 248.163 C 376.800 246.733,376.939 246.452,377.749 246.249 C 378.814 245.981,379.200 244.740,379.200 241.578 C 379.200 239.889,379.309 239.640,380.100 239.528 C 380.933 239.410,381.009 239.169,381.117 236.300 C 381.217 233.653,381.336 233.200,381.937 233.200 C 383.222 233.200,383.600 232.325,383.600 229.348 C 383.600 226.653,383.661 226.447,384.500 226.328 C 385.361 226.205,385.405 226.015,385.514 221.900 C 385.625 217.681,385.645 217.600,386.571 217.600 C 387.872 217.600,388.000 217.042,388.000 211.367 L 388.000 206.400 389.000 206.400 L 390.000 206.400 390.000 192.243 L 390.000 178.087 390.994 177.837 C 392.887 177.362,392.804 171.543,390.900 171.272 L 390.000 171.144 390.000 157.162 L 390.000 143.180 389.000 142.800 C 388.031 142.432,388.000 142.304,388.000 138.643 C 388.000 134.192,387.831 133.600,386.557 133.600 C 385.606 133.600,385.600 133.574,385.600 129.200 L 385.600 124.800 384.600 124.800 C 383.617 124.800,383.599 124.743,383.560 121.500 C 383.510 117.324,383.214 116.236,382.084 116.072 C 381.296 115.958,381.200 115.708,381.200 113.772 C 381.200 111.722,381.144 111.600,380.200 111.600 C 379.233 111.600,379.200 111.512,379.194 108.900 C 379.187 105.910,379.006 105.434,377.720 105.033 C 376.985 104.804,376.821 104.417,376.720 102.679 C 376.608 100.743,376.524 100.591,375.500 100.473 C 374.450 100.353,374.400 100.247,374.400 98.173 C 374.400 96.134,374.340 96.000,373.421 96.000 C 372.522 96.000,372.432 95.828,372.321 93.900 C 372.208 91.941,372.126 91.791,371.100 91.673 C 370.050 91.553,370.000 91.447,370.000 89.373 C 370.000 87.334,369.940 87.200,369.021 87.200 C 368.122 87.200,368.032 87.028,367.921 85.100 C 367.808 83.141,367.726 82.991,366.700 82.873 C 365.836 82.774,365.600 82.538,365.600 81.773 C 365.600 81.007,365.391 80.800,364.621 80.800 C 363.722 80.800,363.632 80.628,363.521 78.700 C 363.408 76.741,363.326 76.591,362.300 76.473 C 361.379 76.367,361.200 76.156,361.200 75.173 C 361.200 74.195,361.037 74.000,360.221 74.000 C 359.322 74.000,359.232 73.828,359.121 71.900 C 359.008 69.941,358.926 69.791,357.900 69.673 C 357.052 69.576,356.800 69.334,356.800 68.617 C 356.800 67.958,356.508 67.613,355.800 67.436 C 355.069 67.252,354.800 66.917,354.800 66.192 C 354.800 65.360,354.610 65.200,353.621 65.200 C 352.481 65.200,352.438 65.131,352.321 63.100 C 352.216 61.271,352.084 60.984,351.300 60.872 C 350.706 60.788,350.400 60.470,350.400 59.937 C 350.400 59.408,349.987 58.975,349.200 58.678 C 348.350 58.357,348.000 57.959,348.000 57.312 C 348.000 56.612,347.773 56.400,347.027 56.400 C 346.262 56.400,346.026 56.164,345.927 55.300 C 345.827 54.436,345.564 54.173,344.700 54.073 C 343.836 53.974,343.600 53.738,343.600 52.973 C 343.600 52.209,343.391 52.000,342.627 52.000 C 341.862 52.000,341.626 51.764,341.527 50.900 C 341.427 50.036,341.164 49.773,340.300 49.673 C 339.436 49.574,339.200 49.338,339.200 48.573 C 339.200 47.809,338.991 47.600,338.227 47.600 C 337.462 47.600,337.226 47.364,337.127 46.500 C 337.027 45.636,336.764 45.373,335.900 45.273 C 335.036 45.174,334.800 44.938,334.800 44.173 C 334.800 43.359,334.605 43.200,333.600 43.200 C 332.533 43.200,332.400 43.067,332.400 42.000 C 332.400 40.987,332.244 40.800,331.400 40.800 C 330.600 40.800,330.400 40.600,330.400 39.800 C 330.400 38.956,330.213 38.800,329.200 38.800 C 328.201 38.800,328.000 38.640,328.000 37.843 C 328.000 36.733,327.347 36.400,325.167 36.400 C 323.762 36.400,323.600 36.297,323.600 35.400 C 323.600 34.600,323.400 34.400,322.600 34.400 C 321.756 34.400,321.600 34.213,321.600 33.200 C 321.600 32.133,321.467 32.000,320.400 32.000 C 319.387 32.000,319.200 31.844,319.200 31.000 C 319.200 30.226,318.994 30.000,318.288 30.000 C 317.641 30.000,317.243 29.650,316.922 28.800 C 316.510 27.707,316.306 27.600,314.635 27.600 C 312.944 27.600,312.800 27.521,312.800 26.600 C 312.800 25.756,312.613 25.600,311.600 25.600 C 310.601 25.600,310.400 25.440,310.400 24.643 C 310.400 23.533,309.747 23.200,307.567 23.200 C 306.162 23.200,306.000 23.097,306.000 22.200 C 306.000 21.303,305.838 21.200,304.433 21.200 C 302.253 21.200,301.600 20.867,301.600 19.757 C 301.600 18.864,301.454 18.800,299.400 18.800 C 297.346 18.800,297.200 18.736,297.200 17.843 C 297.200 16.733,296.547 16.400,294.367 16.400 C 292.962 16.400,292.800 16.297,292.800 15.400 C 292.800 14.455,292.680 14.400,290.600 14.400 C 288.546 14.400,288.400 14.336,288.400 13.443 C 288.400 12.336,287.746 12.000,285.595 12.000 C 284.303 12.000,284.035 11.855,283.928 11.100 C 283.809 10.262,283.576 10.192,280.525 10.084 C 277.294 9.970,277.248 9.954,277.125 8.884 C 277.002 7.821,276.940 7.798,273.900 7.683 C 270.906 7.570,270.800 7.533,270.800 6.583 C 270.800 5.617,270.743 5.600,267.427 5.600 L 264.053 5.600 263.927 4.500 L 263.800 3.400 259.500 3.286 C 255.226 3.174,255.200 3.167,255.200 2.186 L 255.200 1.200 249.600 1.200 C 244.889 1.200,244.000 1.105,244.000 0.600 C 244.000 0.072,240.667 0.000,216.400 0.000 C 192.133 0.000,188.800 0.072,188.800 0.600 M54.400 32.971 C 54.400 33.847,54.613 33.969,56.578 34.215 C 58.395 34.442,58.776 34.629,58.878 35.343 C 58.980 36.062,59.309 36.220,60.915 36.323 C 62.676 36.435,62.848 36.539,63.065 37.623 C 63.246 38.529,63.518 38.800,64.250 38.800 C 64.997 38.800,65.200 39.014,65.200 39.800 C 65.200 40.644,65.387 40.800,66.400 40.800 C 67.467 40.800,67.600 40.933,67.600 42.000 C 67.600 43.007,67.758 43.200,68.579 43.200 C 69.478 43.200,69.568 43.372,69.679 45.300 C 69.791 47.252,69.877 47.409,70.887 47.525 L 71.974 47.651 72.087 52.023 C 72.149 54.427,72.145 58.832,72.078 61.812 L 71.956 67.229 70.778 67.464 C 69.883 67.643,69.600 67.921,69.600 68.622 C 69.600 69.274,69.336 69.582,68.700 69.672 C 67.916 69.784,67.784 70.071,67.679 71.900 C 67.562 73.931,67.519 74.000,66.379 74.000 C 65.340 74.000,65.200 74.140,65.200 75.179 C 65.200 76.319,65.131 76.362,63.100 76.479 C 61.271 76.584,60.984 76.716,60.872 77.500 C 60.781 78.142,60.475 78.400,59.804 78.400 C 59.088 78.400,58.802 78.681,58.604 79.580 C 58.363 80.680,58.205 80.768,56.273 80.880 C 54.471 80.984,54.183 81.118,54.072 81.900 C 53.946 82.792,53.883 82.800,47.372 82.800 L 40.800 82.800 40.800 81.800 C 40.800 80.855,40.680 80.800,38.600 80.800 C 36.748 80.800,36.400 80.686,36.400 80.080 C 36.400 78.925,35.563 78.400,33.720 78.400 C 32.152 78.400,32.000 78.312,32.000 77.400 C 32.000 76.614,31.797 76.400,31.050 76.400 C 30.314 76.400,30.046 76.129,29.860 75.200 C 29.669 74.247,29.412 74.000,28.610 74.000 C 27.799 74.000,27.600 73.803,27.600 73.000 C 27.600 72.213,27.397 72.000,26.646 72.000 C 25.790 72.000,25.664 71.775,25.417 69.800 C 25.169 67.813,25.048 67.600,24.171 67.600 C 23.260 67.600,23.200 67.463,23.200 65.390 C 23.200 63.254,23.160 63.172,22.000 62.940 L 20.800 62.700 20.800 57.400 L 20.800 52.100 22.000 51.860 L 23.200 51.620 23.200 48.410 L 23.200 45.200 24.400 45.200 C 25.399 45.200,25.600 45.040,25.600 44.243 C 25.600 43.557,25.882 43.216,26.600 43.036 C 27.321 42.855,27.600 42.515,27.600 41.820 C 27.600 41.124,27.851 40.820,28.500 40.728 C 29.062 40.648,29.446 40.279,29.522 39.746 C 29.605 39.163,30.019 38.816,30.822 38.656 C 31.743 38.471,32.000 38.205,32.000 37.437 C 32.000 36.661,32.233 36.426,33.100 36.327 C 33.879 36.237,34.237 35.943,34.325 35.320 C 34.433 34.561,34.737 34.424,36.525 34.320 C 38.457 34.208,38.609 34.124,38.727 33.100 L 38.853 32.000 46.627 32.000 L 54.400 32.000 54.400 32.971 M41.067 43.467 C 40.920 43.613,40.800 44.040,40.800 44.415 C 40.800 44.928,40.344 45.147,38.951 45.304 C 36.839 45.542,36.415 46.004,36.406 48.072 C 36.401 49.292,36.246 49.566,35.500 49.672 C 34.614 49.798,34.598 49.902,34.490 56.300 L 34.380 62.800 35.390 62.800 C 36.348 62.800,36.400 62.914,36.400 65.000 C 36.400 67.178,36.412 67.200,37.600 67.200 C 38.599 67.200,38.800 67.360,38.800 68.157 C 38.800 69.530,39.237 69.600,47.753 69.600 C 55.707 69.600,56.400 69.465,56.400 67.920 C 56.400 67.419,56.704 67.200,57.400 67.200 C 58.345 67.200,58.400 67.080,58.400 65.000 C 58.400 62.818,58.410 62.800,59.610 62.800 L 60.820 62.800 60.710 56.300 L 60.600 49.800 59.500 49.673 C 58.470 49.555,58.400 49.425,58.400 47.620 C 58.400 45.508,58.027 45.217,55.300 45.205 C 54.181 45.201,54.000 45.060,54.000 44.200 L 54.000 43.200 47.667 43.200 C 44.183 43.200,41.213 43.320,41.067 43.467 M255.200 53.000 L 255.200 54.000 259.573 54.000 C 263.758 54.000,263.958 54.039,264.227 54.900 C 264.649 56.253,265.084 56.387,269.072 56.394 C 272.574 56.400,272.750 56.442,272.872 57.300 C 272.991 58.139,273.223 58.208,276.300 58.316 L 279.600 58.432 279.600 59.616 C 279.600 60.784,279.629 60.800,281.800 60.800 C 283.880 60.800,284.000 60.855,284.000 61.800 C 284.000 62.744,284.122 62.800,286.173 62.800 C 288.247 62.800,288.353 62.850,288.473 63.900 C 288.591 64.926,288.741 65.008,290.700 65.121 C 292.628 65.232,292.800 65.322,292.800 66.221 C 292.800 67.141,292.933 67.200,295.000 67.200 C 297.178 67.200,297.200 67.212,297.200 68.400 C 297.200 69.467,297.333 69.600,298.400 69.600 C 299.413 69.600,299.600 69.756,299.600 70.600 C 299.600 71.545,299.720 71.600,301.800 71.600 C 303.978 71.600,304.000 71.612,304.000 72.800 C 304.000 73.805,304.159 74.000,304.973 74.000 C 305.738 74.000,305.974 74.236,306.073 75.100 C 306.173 75.964,306.436 76.227,307.300 76.327 C 308.164 76.426,308.400 76.662,308.400 77.427 C 308.400 78.198,308.607 78.400,309.400 78.400 C 310.096 78.400,310.400 78.619,310.400 79.120 C 310.400 80.042,311.158 80.800,312.080 80.800 C 312.581 80.800,312.800 81.104,312.800 81.800 C 312.800 82.600,313.000 82.800,313.800 82.800 C 314.496 82.800,314.800 83.019,314.800 83.520 C 314.800 84.442,315.558 85.200,316.480 85.200 C 316.981 85.200,317.200 85.504,317.200 86.200 C 317.200 86.993,317.402 87.200,318.173 87.200 C 318.938 87.200,319.174 87.436,319.273 88.300 C 319.373 89.164,319.636 89.427,320.500 89.527 C 321.364 89.626,321.600 89.862,321.600 90.627 C 321.600 91.398,321.807 91.600,322.600 91.600 C 323.386 91.600,323.600 91.803,323.600 92.550 C 323.600 94.872,324.074 96.000,325.050 96.000 C 325.839 96.000,326.000 96.204,326.000 97.200 C 326.000 98.194,326.162 98.400,326.944 98.400 C 327.770 98.400,327.932 98.661,328.244 100.500 C 328.539 102.242,328.753 102.622,329.500 102.728 C 330.282 102.839,330.400 103.093,330.400 104.663 C 330.400 106.303,330.511 106.511,331.600 106.922 C 332.702 107.338,332.800 107.531,332.800 109.280 C 332.800 110.968,332.912 111.213,333.780 111.431 C 334.640 111.647,334.776 111.930,334.880 113.738 C 334.992 115.656,335.077 115.809,336.100 115.927 C 337.150 116.047,337.200 116.153,337.200 118.227 C 337.200 120.278,337.256 120.400,338.200 120.400 C 339.184 120.400,339.200 120.453,339.200 123.610 L 339.200 126.820 340.400 127.060 L 341.600 127.300 341.600 131.450 L 341.600 135.600 342.600 135.600 L 343.600 135.600 343.600 140.010 L 343.600 144.420 344.800 144.660 L 346.000 144.900 346.000 151.450 L 346.000 158.000 347.200 158.000 L 348.400 158.000 348.400 163.600 L 348.400 169.200 347.200 169.200 L 346.000 169.200 346.000 180.173 L 346.000 191.147 344.900 191.273 L 343.800 191.400 343.690 197.900 L 343.580 204.400 342.590 204.400 L 341.600 204.400 341.600 208.800 C 341.600 212.770,341.530 213.200,340.880 213.200 C 339.488 213.200,339.200 214.037,339.200 218.080 C 339.200 221.995,339.199 222.000,338.200 222.000 C 337.212 222.000,337.200 222.040,337.200 225.400 L 337.200 228.800 336.000 228.800 C 334.812 228.800,334.800 228.822,334.800 231.000 C 334.800 233.080,334.745 233.200,333.800 233.200 C 332.855 233.200,332.800 233.320,332.800 235.400 C 332.800 237.454,332.736 237.600,331.843 237.600 C 330.736 237.600,330.400 238.254,330.400 240.405 C 330.400 241.696,330.255 241.965,329.502 242.072 C 328.756 242.178,328.549 242.551,328.276 244.276 C 328.006 245.980,327.791 246.374,327.073 246.476 C 326.321 246.583,326.183 246.891,326.079 248.700 C 325.968 250.635,325.880 250.800,324.969 250.800 C 324.194 250.800,323.929 251.055,323.744 251.978 C 323.584 252.781,323.237 253.195,322.654 253.278 C 321.944 253.380,321.780 253.711,321.680 255.254 C 321.570 256.950,321.459 257.128,320.380 257.344 C 319.447 257.531,319.200 257.792,319.200 258.590 C 319.200 259.401,319.003 259.600,318.200 259.600 C 317.361 259.600,317.200 259.788,317.200 260.773 C 317.200 261.756,317.021 261.967,316.100 262.073 C 315.329 262.162,314.963 262.458,314.877 263.062 C 314.802 263.587,314.372 264.021,313.777 264.170 C 313.069 264.348,312.800 264.689,312.800 265.408 C 312.800 266.187,312.595 266.400,311.843 266.400 C 311.168 266.400,310.816 266.681,310.647 267.356 C 310.501 267.935,310.012 268.411,309.403 268.563 C 308.679 268.745,308.400 269.084,308.400 269.781 C 308.400 270.537,308.161 270.774,307.300 270.873 C 306.512 270.964,306.164 271.256,306.072 271.900 C 305.980 272.551,305.676 272.800,304.972 272.800 C 304.159 272.800,304.000 272.996,304.000 274.000 C 304.000 275.067,303.867 275.200,302.800 275.200 C 301.787 275.200,301.600 275.356,301.600 276.200 C 301.600 277.080,301.428 277.200,300.174 277.200 C 298.342 277.200,297.200 277.820,297.200 278.814 C 297.200 279.386,296.927 279.600,296.200 279.600 C 295.400 279.600,295.200 279.800,295.200 280.600 C 295.200 281.460,295.019 281.601,293.900 281.605 C 291.659 281.615,290.800 282.008,290.800 283.026 C 290.800 283.869,290.598 283.970,288.700 284.079 C 286.871 284.184,286.584 284.316,286.472 285.100 C 286.370 285.816,286.085 286.001,285.072 286.005 C 282.843 286.015,282.000 286.410,282.000 287.447 C 282.000 288.333,281.849 288.400,279.843 288.400 C 277.877 288.400,277.665 288.488,277.436 289.400 C 277.207 290.313,276.996 290.400,275.018 290.400 C 272.255 290.400,270.800 290.943,270.800 291.974 C 270.800 292.692,270.486 292.779,267.500 292.884 C 264.430 292.992,264.191 293.062,264.073 293.895 L 263.946 294.789 250.873 294.895 L 237.800 295.000 237.673 296.100 L 237.547 297.200 183.373 297.200 L 129.200 297.200 129.200 217.600 L 129.200 138.000 149.200 138.000 L 169.200 138.000 169.200 196.602 L 169.200 255.204 209.900 255.102 L 250.600 255.000 250.725 253.916 C 250.848 252.846,250.894 252.830,254.125 252.716 C 257.176 252.608,257.409 252.538,257.528 251.700 C 257.645 250.875,257.866 250.800,260.195 250.800 C 263.369 250.800,264.000 250.561,264.000 249.357 C 264.000 248.560,264.201 248.400,265.200 248.400 C 266.207 248.400,266.400 248.242,266.400 247.421 C 266.400 246.522,266.572 246.432,268.500 246.321 C 270.459 246.208,270.609 246.126,270.727 245.100 C 270.845 244.066,270.972 244.000,272.819 244.000 C 274.570 244.000,274.812 243.893,275.030 243.023 C 275.179 242.428,275.613 241.998,276.138 241.923 C 276.742 241.837,277.038 241.471,277.127 240.700 C 277.233 239.779,277.444 239.600,278.427 239.600 C 279.412 239.600,279.600 239.439,279.600 238.600 C 279.600 237.800,279.800 237.600,280.600 237.600 C 281.444 237.600,281.600 237.413,281.600 236.400 C 281.600 235.333,281.733 235.200,282.800 235.200 C 283.804 235.200,284.000 235.041,284.000 234.228 C 284.000 233.524,284.249 233.220,284.900 233.128 C 285.539 233.037,285.836 232.687,285.924 231.924 C 286.020 231.093,286.293 230.820,287.124 230.724 C 287.962 230.627,288.228 230.357,288.327 229.500 C 288.424 228.649,288.665 228.400,289.389 228.400 C 290.207 228.400,290.359 228.152,290.597 226.423 C 290.819 224.805,291.026 224.424,291.734 224.323 C 292.337 224.238,292.638 223.873,292.724 223.125 C 292.811 222.372,293.111 222.012,293.724 221.925 C 294.435 221.823,294.668 221.417,294.962 219.768 C 295.223 218.302,295.557 217.634,296.162 217.368 C 296.892 217.048,297.015 216.602,297.116 213.925 C 297.230 210.913,297.255 210.847,298.316 210.725 C 299.378 210.603,299.402 210.537,299.516 207.526 C 299.623 204.701,299.704 204.441,300.516 204.326 C 301.357 204.206,301.406 203.990,301.513 199.925 L 301.627 195.651 302.713 195.525 L 303.800 195.400 303.910 188.927 C 304.017 182.577,304.037 182.451,304.910 182.327 L 305.800 182.200 305.906 171.345 L 306.013 160.490 305.006 160.237 L 304.000 159.985 304.000 154.021 C 304.000 147.847,303.735 146.800,302.171 146.800 C 301.724 146.800,301.600 146.107,301.600 143.600 C 301.600 140.472,301.578 140.400,300.621 140.400 C 299.722 140.400,299.632 140.228,299.521 138.300 C 299.409 136.350,299.323 136.191,298.316 136.075 C 297.255 135.953,297.230 135.887,297.116 132.875 C 297.013 130.144,296.901 129.757,296.116 129.412 C 295.630 129.199,295.180 128.659,295.116 128.212 C 295.037 127.660,294.647 127.359,293.900 127.273 C 292.850 127.153,292.800 127.047,292.800 124.973 C 292.800 122.938,292.738 122.800,291.827 122.800 C 291.062 122.800,290.826 122.564,290.727 121.700 C 290.627 120.836,290.364 120.573,289.500 120.473 C 288.493 120.358,288.400 120.203,288.400 118.653 C 288.400 116.836,287.871 116.000,286.720 116.000 C 286.224 116.000,286.000 115.697,286.000 115.028 C 286.000 114.330,285.750 114.020,285.116 113.928 C 284.557 113.847,284.147 113.433,284.001 112.800 C 283.834 112.084,283.460 111.764,282.684 111.673 C 281.852 111.576,281.600 111.330,281.600 110.617 C 281.600 109.965,281.309 109.614,280.628 109.443 C 280.021 109.290,279.607 108.860,279.528 108.299 C 279.436 107.656,279.087 107.364,278.300 107.273 C 277.446 107.175,277.200 106.935,277.200 106.202 C 277.200 105.357,276.968 105.229,275.000 104.983 C 273.025 104.736,272.800 104.610,272.800 103.754 C 272.800 103.015,272.585 102.800,271.843 102.800 C 271.160 102.800,270.816 102.518,270.639 101.813 C 270.431 100.982,270.079 100.785,268.417 100.565 C 266.809 100.351,266.420 100.145,266.321 99.451 C 266.219 98.730,265.891 98.582,264.181 98.482 C 262.357 98.375,262.118 98.249,261.716 97.182 C 261.275 96.016,261.229 96.000,258.235 96.000 C 255.264 96.000,255.200 95.979,255.200 95.000 L 255.200 94.000 250.800 94.000 C 246.711 94.000,246.400 93.945,246.400 93.224 C 246.400 91.808,245.886 91.800,164.000 91.877 C 119.230 91.919,83.140 91.828,83.800 91.675 C 84.717 91.462,85.029 91.143,85.124 90.323 C 85.211 89.572,85.512 89.212,86.124 89.125 C 86.862 89.020,87.019 88.704,87.121 87.125 C 87.231 85.421,87.341 85.238,88.321 85.125 C 89.322 85.009,89.409 84.848,89.521 82.900 C 89.632 80.972,89.722 80.800,90.621 80.800 C 91.540 80.800,91.600 80.666,91.600 78.627 C 91.600 76.553,91.650 76.447,92.700 76.327 C 93.790 76.201,93.801 76.170,93.916 72.900 C 94.029 69.693,94.060 69.600,95.016 69.600 L 96.000 69.600 96.000 60.800 L 96.000 52.000 175.600 52.000 L 255.200 52.000 255.200 53.000 M235.600 138.950 C 235.600 140.029,236.727 140.400,240.007 140.400 C 241.707 140.400,241.940 140.508,242.164 141.400 C 242.390 142.299,242.616 142.400,244.408 142.400 C 246.141 142.400,246.400 142.505,246.400 143.210 C 246.400 144.121,247.777 144.800,249.626 144.800 C 250.612 144.800,250.800 144.960,250.800 145.800 C 250.800 146.639,250.988 146.800,251.973 146.800 C 252.956 146.800,253.167 146.979,253.273 147.900 C 253.364 148.688,253.656 149.036,254.300 149.128 C 254.951 149.220,255.200 149.524,255.200 150.228 C 255.200 151.041,255.396 151.200,256.400 151.200 C 257.467 151.200,257.600 151.333,257.600 152.400 C 257.600 153.413,257.756 153.600,258.600 153.600 C 259.497 153.600,259.600 153.762,259.600 155.167 C 259.600 157.347,259.933 158.000,261.043 158.000 C 261.936 158.000,262.000 158.146,262.000 160.200 C 262.000 162.333,262.033 162.400,263.100 162.400 L 264.200 162.400 264.200 173.508 L 264.200 184.616 263.200 184.608 C 262.223 184.600,262.197 184.675,262.084 187.900 L 261.968 191.200 260.747 191.200 L 259.526 191.200 259.663 193.401 C 259.798 195.568,259.783 195.601,258.700 195.601 C 257.809 195.600,257.600 195.780,257.600 196.550 C 257.600 197.286,257.329 197.554,256.400 197.740 C 255.458 197.928,255.200 198.191,255.200 198.962 C 255.200 199.676,254.954 199.979,254.300 200.072 C 253.731 200.153,253.354 200.521,253.276 201.074 C 253.191 201.669,252.777 202.029,251.976 202.205 C 251.070 202.404,250.800 202.686,250.800 203.432 C 250.800 204.198,250.591 204.400,249.800 204.400 C 249.008 204.400,248.800 204.602,248.800 205.371 C 248.800 206.248,248.587 206.369,246.600 206.617 C 244.625 206.864,244.400 206.990,244.400 207.846 C 244.400 208.736,244.252 208.800,242.200 208.800 C 240.120 208.800,240.000 208.855,240.000 209.800 C 240.000 210.694,239.836 210.800,238.456 210.800 C 234.806 210.800,233.200 211.244,233.200 212.254 L 233.200 213.200 223.200 213.200 L 213.200 213.200 213.200 175.600 L 213.200 138.000 224.400 138.000 L 235.600 138.000 235.600 138.950 M27.600 374.400 L 27.600 383.200 39.773 383.200 L 51.947 383.200 52.073 384.300 C 52.191 385.326,52.341 385.408,54.300 385.521 C 56.228 385.632,56.400 385.722,56.400 386.621 C 56.400 387.385,56.609 387.600,57.350 387.600 C 58.086 387.600,58.354 387.871,58.540 388.800 C 58.729 389.745,58.990 390.000,59.769 390.000 C 60.680 390.000,60.768 390.165,60.879 392.100 C 60.984 393.929,61.116 394.216,61.900 394.328 C 63.385 394.539,63.288 401.200,61.800 401.200 C 60.855 401.200,60.800 401.320,60.800 403.400 C 60.800 405.452,60.736 405.600,59.846 405.600 C 58.990 405.600,58.864 405.825,58.617 407.800 L 58.342 410.000 56.371 410.000 C 54.535 410.000,54.400 410.069,54.400 411.000 C 54.400 411.946,54.281 412.000,52.190 412.000 C 50.054 412.000,49.972 412.040,49.740 413.200 C 49.555 414.127,49.285 414.400,48.556 414.400 L 47.612 414.400 47.506 402.300 L 47.400 390.200 37.500 390.093 L 27.600 389.986 27.600 409.793 L 27.600 429.600 44.200 429.600 L 60.800 429.600 60.800 428.600 C 60.800 427.630,60.882 427.600,63.571 427.600 C 66.401 427.600,67.600 427.056,67.600 425.771 C 67.600 425.429,68.000 425.200,68.600 425.200 C 69.379 425.200,69.600 424.995,69.600 424.273 C 69.600 423.469,69.878 423.297,71.700 422.973 C 73.415 422.668,73.823 422.439,73.925 421.725 C 74.001 421.186,74.380 420.801,74.908 420.725 C 75.437 420.648,75.856 420.221,75.998 419.615 C 76.143 418.997,76.597 418.543,77.215 418.398 C 78.063 418.200,78.217 417.909,78.321 416.308 C 78.431 414.622,78.542 414.438,79.521 414.325 C 80.519 414.209,80.609 414.045,80.720 412.138 C 80.825 410.327,80.959 410.047,81.826 409.829 L 82.812 409.582 82.706 397.691 L 82.600 385.800 81.700 385.672 C 80.945 385.565,80.800 385.297,80.800 384.005 C 80.800 381.854,80.464 381.200,79.357 381.200 C 78.560 381.200,78.400 380.999,78.400 380.000 C 78.400 378.987,78.244 378.800,77.400 378.800 C 76.600 378.800,76.400 378.600,76.400 377.800 C 76.400 376.956,76.213 376.800,75.200 376.800 C 74.133 376.800,74.000 376.667,74.000 375.600 C 74.000 374.596,73.841 374.400,73.028 374.400 C 72.324 374.400,72.020 374.151,71.928 373.500 C 71.837 372.861,71.487 372.564,70.724 372.476 C 69.893 372.380,69.620 372.107,69.524 371.276 C 69.409 370.279,69.246 370.191,67.300 370.079 C 65.372 369.968,65.200 369.878,65.200 368.979 C 65.200 368.059,65.067 368.000,63.000 368.000 C 61.148 368.000,60.800 367.886,60.800 367.280 C 60.800 365.630,60.494 365.600,43.720 365.600 L 27.600 365.600 27.600 374.400 M107.297 394.282 L 107.400 422.964 108.400 423.198 C 109.263 423.400,109.416 423.684,109.520 425.270 C 109.647 427.218,110.226 427.600,113.050 427.600 C 113.797 427.600,114.000 427.814,114.000 428.600 L 114.000 429.600 119.400 429.600 C 123.933 429.600,124.800 429.696,124.800 430.200 C 124.800 430.724,127.044 430.800,142.600 430.800 L 160.400 430.800 160.400 398.833 C 160.400 381.251,160.291 366.581,160.157 366.233 C 159.945 365.680,158.686 365.600,150.157 365.600 L 140.400 365.600 140.400 366.800 C 140.400 367.796,140.239 368.000,139.452 368.000 C 138.045 368.000,138.009 368.614,138.004 392.700 L 138.000 414.400 137.088 414.400 C 136.441 414.400,136.043 414.050,135.722 413.200 C 135.274 412.012,135.239 412.000,132.235 412.000 C 129.264 412.000,129.200 411.979,129.200 411.000 C 129.200 410.200,129.000 410.000,128.200 410.000 L 127.200 410.000 127.200 388.433 C 127.200 376.571,127.091 366.581,126.957 366.233 C 126.745 365.680,125.485 365.600,116.955 365.600 L 107.195 365.600 107.297 394.282 M202.400 368.792 C 202.400 371.864,202.438 371.994,203.400 372.236 C 204.334 372.470,204.400 372.652,204.400 375.011 C 204.400 378.168,204.641 378.800,205.843 378.800 C 206.736 378.800,206.800 378.946,206.800 381.000 C 206.800 383.062,206.861 383.200,207.771 383.200 C 208.712 383.200,208.745 383.303,208.871 386.601 L 209.000 390.002 201.347 390.001 C 192.579 390.000,193.216 389.683,193.205 394.057 C 193.200 396.128,193.118 396.334,192.200 396.564 C 191.238 396.806,191.200 396.936,191.200 400.008 C 191.200 403.101,191.171 403.200,190.250 403.200 C 189.153 403.200,188.800 404.325,188.800 407.822 C 188.800 409.718,188.704 409.958,187.900 410.072 C 187.039 410.194,186.995 410.386,186.887 414.475 L 186.773 418.749 185.687 418.875 C 184.621 418.998,184.598 419.060,184.484 422.074 C 184.377 424.899,184.296 425.159,183.484 425.274 C 182.719 425.383,182.584 425.683,182.479 427.500 L 182.358 429.600 186.779 429.600 C 190.442 429.600,191.200 429.703,191.200 430.200 C 191.200 430.727,194.402 430.800,217.615 430.800 L 244.030 430.800 243.915 427.100 C 243.806 423.608,243.749 423.393,242.900 423.272 C 242.061 423.153,242.000 422.947,242.000 420.252 C 242.000 417.265,241.623 416.400,240.320 416.400 C 239.714 416.400,239.600 416.052,239.600 414.200 C 239.600 412.120,239.545 412.000,238.600 412.000 C 237.617 412.000,237.600 411.947,237.600 408.800 L 237.600 405.600 236.400 405.600 L 235.200 405.600 235.200 402.200 C 235.200 398.855,235.184 398.800,234.216 398.800 C 233.260 398.800,233.229 398.707,233.116 395.500 C 233.001 392.230,232.990 392.199,231.900 392.073 C 230.803 391.947,230.800 391.938,230.800 388.773 C 230.800 385.669,230.779 385.600,229.816 385.600 C 228.860 385.600,228.829 385.507,228.716 382.300 C 228.601 379.030,228.590 378.999,227.500 378.873 C 226.403 378.747,226.400 378.738,226.400 375.573 C 226.400 372.455,226.383 372.400,225.400 372.400 C 224.430 372.400,224.400 372.318,224.400 369.633 C 224.400 365.224,225.449 365.600,213.157 365.600 L 202.400 365.600 202.400 368.792 M268.492 374.296 L 268.600 383.000 280.720 383.106 L 292.840 383.212 292.720 385.506 C 292.614 387.537,292.497 387.815,291.700 387.928 C 291.049 388.020,290.800 388.324,290.800 389.028 L 290.800 390.000 279.592 390.000 L 268.384 390.000 268.492 398.700 L 268.600 407.400 279.674 407.506 L 290.748 407.613 290.874 408.706 C 290.964 409.488,291.257 409.837,291.900 409.928 C 292.790 410.054,292.800 410.125,292.800 416.396 L 292.800 422.736 294.000 423.000 L 295.200 423.264 295.200 427.032 L 295.200 430.800 301.800 430.800 C 307.400 430.800,308.400 430.709,308.400 430.200 C 308.400 429.739,308.912 429.600,310.605 429.600 L 312.811 429.600 312.705 416.500 L 312.600 403.400 311.524 403.276 C 310.693 403.180,310.420 402.907,310.324 402.076 C 310.238 401.330,309.936 400.962,309.342 400.878 C 307.727 400.647,307.807 396.400,309.427 396.400 C 310.198 396.400,310.400 396.193,310.400 395.400 C 310.400 394.556,310.587 394.400,311.600 394.400 C 312.667 394.400,312.800 394.267,312.800 393.200 C 312.800 392.187,312.956 392.000,313.800 392.000 L 314.800 392.000 314.800 383.200 L 314.800 374.400 313.800 374.400 C 313.000 374.400,312.800 374.200,312.800 373.400 C 312.800 372.556,312.613 372.400,311.600 372.400 C 310.533 372.400,310.400 372.267,310.400 371.200 C 310.400 370.201,310.240 370.000,309.443 370.000 C 308.757 370.000,308.416 369.718,308.236 369.000 C 307.994 368.039,307.862 368.000,304.819 368.000 C 301.663 368.000,301.653 367.997,301.527 366.900 L 301.400 365.800 284.892 365.696 L 268.384 365.591 268.492 374.296 M359.288 370.893 C 359.396 376.018,359.430 376.204,360.281 376.325 C 361.054 376.435,361.176 376.729,361.281 378.725 C 361.393 380.875,361.460 381.007,362.500 381.127 C 363.597 381.253,363.600 381.262,363.600 384.427 C 363.600 387.545,363.617 387.600,364.600 387.600 C 365.444 387.600,365.600 387.787,365.600 388.800 L 365.600 390.000 358.000 390.000 L 350.400 390.000 350.400 390.950 C 350.400 391.691,350.129 391.954,349.169 392.146 L 347.939 392.392 348.069 395.597 L 348.200 398.802 347.100 398.801 L 346.000 398.800 346.000 402.200 C 346.000 405.519,345.977 405.600,345.043 405.600 C 343.770 405.600,343.600 406.193,343.600 410.633 C 343.600 414.384,343.596 414.400,342.600 414.400 C 341.617 414.400,341.600 414.455,341.600 417.573 C 341.600 420.738,341.597 420.747,340.500 420.873 L 339.400 421.000 339.286 425.300 L 339.173 429.600 341.386 429.600 C 343.087 429.600,343.600 429.739,343.600 430.200 C 343.600 430.727,346.689 430.800,369.000 430.800 C 391.311 430.800,394.400 430.727,394.400 430.200 C 394.400 429.739,394.913 429.600,396.614 429.600 L 398.827 429.600 398.714 425.300 C 398.605 421.185,398.561 420.995,397.700 420.872 C 396.875 420.755,396.800 420.534,396.800 418.205 C 396.800 415.040,396.560 414.400,395.373 414.400 C 394.471 414.400,394.428 414.265,394.316 411.100 C 394.208 408.023,394.139 407.791,393.300 407.672 C 392.531 407.563,392.399 407.300,392.396 405.872 C 392.387 402.516,391.983 401.200,390.964 401.200 C 390.073 401.200,390.027 401.055,389.916 397.900 C 389.808 394.823,389.739 394.591,388.900 394.472 C 388.131 394.363,387.999 394.100,387.996 392.672 C 387.987 389.508,387.575 388.053,386.651 387.921 C 385.930 387.819,385.769 387.463,385.600 385.600 C 385.428 383.709,385.276 383.382,384.516 383.274 C 383.704 383.159,383.623 382.899,383.516 380.074 C 383.402 377.051,383.382 376.998,382.300 376.873 L 381.200 376.747 381.200 373.373 C 381.200 370.061,381.182 370.000,380.221 370.000 C 379.322 370.000,379.232 369.828,379.121 367.900 L 379.000 365.800 369.088 365.693 L 359.177 365.586 359.288 370.893 M213.284 399.700 C 213.398 402.957,213.414 403.002,214.484 403.125 C 215.545 403.247,215.570 403.313,215.684 406.325 C 215.791 409.168,215.868 409.410,216.700 409.528 C 217.400 409.627,217.600 409.917,217.600 410.828 L 217.600 412.000 213.200 412.000 L 208.800 412.000 208.800 408.600 C 208.800 405.281,208.823 405.200,209.757 405.200 C 211.030 405.200,211.200 404.607,211.200 400.167 C 211.200 396.432,211.208 396.400,212.184 396.400 C 213.140 396.400,213.171 396.493,213.284 399.700 M369.412 400.800 C 369.789 400.800,369.996 401.451,370.079 402.900 C 370.192 404.859,370.274 405.009,371.300 405.127 L 372.400 405.253 372.400 408.627 L 372.400 412.000 368.000 412.000 L 363.600 412.000 363.600 409.800 C 363.600 407.720,363.655 407.600,364.600 407.600 C 365.588 407.600,365.600 407.558,365.600 404.227 L 365.600 400.853 366.700 400.689 C 367.305 400.598,368.040 400.586,368.333 400.662 C 368.626 400.738,369.111 400.800,369.412 400.800 " stroke="none" fill="#0c6c7c" fill-rule="evenodd"></path><path id="path1" d="M116.932 91.900 C 135.814 91.957,166.594 91.957,185.332 91.900 C 204.069 91.842,188.620 91.795,151.000 91.795 C 113.380 91.795,98.049 91.842,116.932 91.900 M348.159 163.600 C 348.159 166.790,348.221 168.095,348.297 166.500 C 348.373 164.905,348.373 162.295,348.297 160.700 C 348.221 159.105,348.159 160.410,348.159 163.600 " stroke="none" fill="#106c7c" fill-rule="evenodd"></path><path id="path2" d="M116.932 91.900 C 135.814 91.957,166.594 91.957,185.332 91.900 C 204.069 91.842,188.620 91.795,151.000 91.795 C 113.380 91.795,98.049 91.842,116.932 91.900 M348.159 163.600 C 348.159 166.790,348.221 168.095,348.297 166.500 C 348.373 164.905,348.373 162.295,348.297 160.700 C 348.221 159.105,348.159 160.410,348.159 163.600 " stroke="none" fill="#106c7c" fill-rule="evenodd"></path><path id="path3" d="M116.932 91.900 C 135.814 91.957,166.594 91.957,185.332 91.900 C 204.069 91.842,188.620 91.795,151.000 91.795 C 113.380 91.795,98.049 91.842,116.932 91.900 M348.159 163.600 C 348.159 166.790,348.221 168.095,348.297 166.500 C 348.373 164.905,348.373 162.295,348.297 160.700 C 348.221 159.105,348.159 160.410,348.159 163.600 " stroke="none" fill="#106c7c" fill-rule="evenodd"></path><path id="path4" d="M116.932 91.900 C 135.814 91.957,166.594 91.957,185.332 91.900 C 204.069 91.842,188.620 91.795,151.000 91.795 C 113.380 91.795,98.049 91.842,116.932 91.900 M348.159 163.600 C 348.159 166.790,348.221 168.095,348.297 166.500 C 348.373 164.905,348.373 162.295,348.297 160.700 C 348.221 159.105,348.159 160.410,348.159 163.600 " stroke="none" fill="#106c7c" fill-rule="evenodd"></path></g></svg>